<svg width="50" height="51" viewBox="0 0 50 51" fill="none" xmlns="http://www.w3.org/2000/svg">
<path fill-rule="evenodd" clip-rule="evenodd" d="M24.7638 30.7698L24.999 30.7699L25.5253 30.7717C29.5473 30.7982 38.7388 31.2045 38.7388 37.4344C38.7388 43.6234 29.8677 44.0271 25.5879 44.0534L24.0023 44.0534C19.98 44.0269 10.7867 43.6211 10.7867 37.399C10.7867 31.2021 19.98 30.798 24.0023 30.7716L24.5285 30.7699C24.6102 30.7698 24.6887 30.7698 24.7638 30.7698ZM24.7638 33.8948C19.8138 33.8948 13.9117 34.5031 13.9117 37.399C13.9117 40.2293 19.4615 40.891 24.3114 40.9285L24.7638 40.9302C29.7138 40.9302 35.6138 40.324 35.6138 37.4344C35.6138 34.5094 29.7138 33.8948 24.7638 33.8948ZM41.3338 29.9244C46.3817 30.6806 47.4421 33.0515 47.4421 34.9077C47.4421 36.0411 46.9963 38.1098 44.0171 39.2452C43.8338 39.314 43.6463 39.3473 43.4609 39.3473C42.8317 39.3473 42.238 38.964 42.0005 38.3411C41.6921 37.5348 42.0984 36.6306 42.9046 36.3244C44.3171 35.7869 44.3171 35.1931 44.3171 34.9077C44.3171 33.9952 43.1567 33.3577 40.8692 33.0161C40.0171 32.8869 39.4275 32.0931 39.5546 31.2369C39.6817 30.3827 40.4734 29.814 41.3338 29.9244ZM9.97087 31.2369C10.098 32.0931 9.50837 32.8869 8.65629 33.0161C6.36879 33.3577 5.20837 33.9952 5.20837 34.9077C5.20837 35.1931 5.20837 35.7848 6.62296 36.3244C7.42921 36.6306 7.83546 37.5348 7.52712 38.3411C7.28962 38.964 6.69587 39.3473 6.06671 39.3473C5.88129 39.3473 5.69379 39.314 5.51046 39.2452C2.52921 38.1077 2.08337 36.039 2.08337 34.9077C2.08337 33.0536 3.14379 30.6806 8.19379 29.9244C9.05421 29.8161 9.84171 30.3827 9.97087 31.2369ZM24.7638 9.07397C30.0138 9.07397 34.2825 13.3448 34.2825 18.5927C34.2825 23.8406 30.0138 28.1115 24.7638 28.1115H24.7075C22.1659 28.1031 19.7846 27.1073 18.0013 25.3073C16.2138 23.5094 15.2367 21.1219 15.247 18.5865C15.247 13.3448 19.5159 9.07397 24.7638 9.07397ZM24.7638 12.199C21.2388 12.199 18.3721 15.0677 18.3721 18.5927C18.3659 20.3011 19.02 21.899 20.218 23.1052C21.4159 24.3115 23.0117 24.9802 24.7117 24.9865L24.7638 26.549V24.9865C28.2888 24.9865 31.1575 22.1198 31.1575 18.5927C31.1575 15.0677 28.2888 12.199 24.7638 12.199ZM37.6575 11.1146C41.32 11.7167 43.9805 14.85 43.9805 18.5646C43.9721 22.3042 41.1784 25.5125 37.4805 26.0313C37.4075 26.0417 37.3346 26.0459 37.2638 26.0459C36.4971 26.0459 35.8284 25.4813 35.718 24.7C35.5992 23.8438 36.193 23.0542 37.0492 22.9354C39.2159 22.6313 40.8513 20.7521 40.8555 18.5604C40.8555 16.3875 39.2971 14.55 37.1492 14.1979C36.2992 14.0584 35.7221 13.2542 35.8617 12.4021C36.0034 11.55 36.8013 10.9792 37.6575 11.1146ZM13.6659 12.4021C13.8055 13.2542 13.2284 14.0584 12.3784 14.1979C10.2305 14.55 8.67212 16.3875 8.67212 18.5646C8.67629 20.7521 10.3117 22.6334 12.4763 22.9354C13.3325 23.0542 13.9263 23.8438 13.8075 24.7C13.6971 25.4813 13.0284 26.0459 12.2617 26.0459C12.1909 26.0459 12.118 26.0417 12.045 26.0313C8.34712 25.5125 5.55546 22.3042 5.54712 18.5688C5.54712 14.85 8.20754 11.7167 11.87 11.1146C12.7471 10.9771 13.5242 11.5542 13.6659 12.4021Z" fill="#43506E"/>
</svg>
