<svg width="31" height="31" viewBox="0 0 31 31" fill="none" xmlns="http://www.w3.org/2000/svg">
<path d="M5.28967 14.7667C5.28967 14.2905 5.64354 13.897 6.10266 13.8347L6.23029 13.8261L22.7652 13.8269L16.7916 7.87772C16.4235 7.51118 16.4222 6.91561 16.7887 6.54748C17.122 6.21282 17.6445 6.18134 18.0133 6.45377L18.119 6.54462L25.7067 14.0997C25.7552 14.148 25.7973 14.2003 25.8331 14.2555C25.8432 14.2721 25.8535 14.2891 25.8632 14.3065C25.8722 14.3214 25.8803 14.3368 25.888 14.3524C25.8986 14.3751 25.9089 14.3986 25.9184 14.4225C25.926 14.441 25.9324 14.4589 25.9382 14.477C25.9452 14.4995 25.9519 14.5234 25.9577 14.5477C25.962 14.5646 25.9654 14.5809 25.9684 14.5973C25.9726 14.6217 25.9761 14.6469 25.9787 14.6724C25.9809 14.6919 25.9822 14.7112 25.9829 14.7305C25.9831 14.7422 25.9833 14.7544 25.9833 14.7667L25.9829 14.8032C25.9821 14.8216 25.9809 14.8401 25.9791 14.8585L25.9833 14.7667C25.9833 14.8261 25.9778 14.8842 25.9673 14.9405C25.9649 14.9539 25.962 14.9677 25.9588 14.9815C25.9521 15.0098 25.9444 15.0371 25.9355 15.0638C25.9311 15.0771 25.926 15.0913 25.9206 15.1054C25.9096 15.1337 25.8977 15.1606 25.8845 15.1869C25.8784 15.1993 25.8716 15.2122 25.8644 15.225C25.8526 15.2459 25.8405 15.2658 25.8277 15.2851C25.8187 15.2988 25.8087 15.3131 25.7982 15.3271L25.7901 15.3379C25.7648 15.3711 25.7373 15.4024 25.7078 15.4319L25.7067 15.4327L18.119 22.9891C17.7509 23.3556 17.1554 23.3544 16.7888 22.9863C16.4555 22.6517 16.4263 22.129 16.7003 21.7614L16.7916 21.6561L22.7627 15.7081L6.23029 15.7074C5.7108 15.7074 5.28967 15.2862 5.28967 14.7667Z" fill="#43506E"/>
</svg>
