<svg width="50" height="51" viewBox="0 0 50 51" fill="none" xmlns="http://www.w3.org/2000/svg">
<path d="M30.2083 29.7808C29.3799 29.7808 28.7083 30.4524 28.7083 31.2808C28.7083 32.1093 29.3799 32.7808 30.2083 32.7808V29.7808ZM35.9924 30.1292L34.6508 29.4584V29.4584L35.9924 30.1292ZM38.8416 27.785C39.2121 27.044 38.9118 26.143 38.1708 25.7725C37.4298 25.4021 36.5288 25.7024 36.1583 26.4434L38.8416 27.785ZM33.1205 31.0616L33.9429 32.316L36.4518 30.6713L35.6294 29.4168L33.1205 31.0616ZM28.6758 21.5457L27.4214 22.3681L28.6758 21.5457ZM25.1513 21.6091L23.8681 20.8324L25.1513 21.6091ZM21.1759 28.1765L19.8927 27.3998L21.1759 28.1765ZM17.5634 28.0929L16.2456 28.8095L17.5634 28.0929ZM13.8177 18.0643C13.422 17.3365 12.5112 17.0673 11.7834 17.4631C11.0556 17.8588 10.7864 18.7696 11.1822 19.4974L13.8177 18.0643ZM12.5 5.69751H37.5V2.69751H12.5V5.69751ZM44.3333 12.5308V37.5308H47.3333V12.5308H44.3333ZM37.5 44.3642H12.5V47.3642H37.5V44.3642ZM5.66663 37.5308V12.5308H2.66663V37.5308H5.66663ZM12.5 44.3642C8.72601 44.3642 5.66663 41.3048 5.66663 37.5308H2.66663C2.66663 42.9616 7.06916 47.3642 12.5 47.3642V44.3642ZM44.3333 37.5308C44.3333 41.3048 41.2739 44.3642 37.5 44.3642V47.3642C42.9308 47.3642 47.3333 42.9616 47.3333 37.5308H44.3333ZM37.5 5.69751C41.2739 5.69751 44.3333 8.7569 44.3333 12.5308H47.3333C47.3333 7.10004 42.9308 2.69751 37.5 2.69751V5.69751ZM12.5 2.69751C7.06916 2.69751 2.66663 7.10004 2.66663 12.5308H5.66663C5.66663 8.7569 8.72601 5.69751 12.5 5.69751V2.69751ZM30.2083 32.7808H34.1291V29.7808H30.2083V32.7808ZM37.3341 30.8L38.8416 27.785L36.1583 26.4434L34.6508 29.4584L37.3341 30.8ZM34.1291 32.7808C35.4863 32.7808 36.7271 32.014 37.3341 30.8L34.6508 29.4584C34.552 29.656 34.35 29.7808 34.1291 29.7808V32.7808ZM35.6294 29.4168L29.9303 20.7234L27.4214 22.3681L33.1205 31.0616L35.6294 29.4168ZM23.8681 20.8324L19.8927 27.3998L22.4591 28.9533L26.4345 22.3859L23.8681 20.8324ZM18.8812 27.3764L13.8177 18.0643L11.1822 19.4974L16.2456 28.8095L18.8812 27.3764ZM19.8927 27.3998C19.6595 27.785 19.0963 27.772 18.8812 27.3764L16.2456 28.8095C17.567 31.2396 21.0267 31.3197 22.4591 28.9533L19.8927 27.3998ZM29.9303 20.7234C28.4848 18.5184 25.2333 18.5769 23.8681 20.8324L26.4345 22.3859C26.6567 22.0187 27.1861 22.0092 27.4214 22.3681L29.9303 20.7234Z" fill="#43506E"/>
</svg>
