<svg width="50" height="51" viewBox="0 0 50 51" fill="none" xmlns="http://www.w3.org/2000/svg">
<path fill-rule="evenodd" clip-rule="evenodd" d="M32.9032 2.82397C33.7657 2.82397 34.4657 3.52397 34.4657 4.38647L34.4667 6.15275C37.5085 6.3613 40.0349 7.40324 41.823 9.19502C43.7751 11.1554 44.8022 13.9742 44.7918 17.3554V36.3617C44.7918 43.3033 40.3834 47.6158 33.2897 47.6158H15.6688C8.57508 47.6158 4.16675 43.2429 4.16675 36.2034V17.3513C4.16675 10.8037 8.09811 6.60093 14.5098 6.15346L14.5111 4.38647C14.5111 3.52397 15.2111 2.82397 16.0736 2.82397C16.9361 2.82397 17.6361 3.52397 17.6361 4.38647L17.6355 6.11356H31.3397L31.3407 4.38647C31.3407 3.52397 32.0407 2.82397 32.9032 2.82397ZM41.6667 21.374H7.29175V36.2034C7.29175 41.5492 10.2667 44.4908 15.6688 44.4908H33.2897C38.6917 44.4908 41.6668 41.6033 41.6668 36.3617L41.6667 21.374ZM33.7526 34.4829C34.6151 34.4829 35.3151 35.1829 35.3151 36.0454C35.3151 36.9079 34.6151 37.6079 33.7526 37.6079C32.8901 37.6079 32.1817 36.9079 32.1817 36.0454C32.1817 35.1829 32.8713 34.4829 33.7338 34.4829H33.7526ZM24.5078 34.4829C25.3703 34.4829 26.0703 35.1829 26.0703 36.0454C26.0703 36.9079 25.3703 37.6079 24.5078 37.6079C23.6453 37.6079 22.937 36.9079 22.937 36.0454C22.937 35.1829 23.6265 34.4829 24.489 34.4829H24.5078ZM15.2436 34.4829C16.1061 34.4829 16.8061 35.1829 16.8061 36.0454C16.8061 36.9079 16.1061 37.6079 15.2436 37.6079C14.3811 37.6079 13.6707 36.9079 13.6707 36.0454C13.6707 35.1829 14.3624 34.4829 15.2249 34.4829H15.2436ZM33.7526 26.3856C34.6151 26.3856 35.3151 27.0856 35.3151 27.9481C35.3151 28.8106 34.6151 29.5106 33.7526 29.5106C32.8901 29.5106 32.1817 28.8106 32.1817 27.9481C32.1817 27.0856 32.8713 26.3856 33.7338 26.3856H33.7526ZM24.5078 26.3856C25.3703 26.3856 26.0703 27.0856 26.0703 27.9481C26.0703 28.8106 25.3703 29.5106 24.5078 29.5106C23.6453 29.5106 22.937 28.8106 22.937 27.9481C22.937 27.0856 23.6265 26.3856 24.489 26.3856H24.5078ZM15.2436 26.3856C16.1061 26.3856 16.8061 27.0856 16.8061 27.9481C16.8061 28.8106 16.1061 29.5106 15.2436 29.5106C14.3811 29.5106 13.6707 28.8106 13.6707 27.9481C13.6707 27.0856 14.3624 26.3856 15.2249 26.3856H15.2436ZM31.3397 9.23856H17.6355L17.6361 11.2427C17.6361 12.1052 16.9361 12.8052 16.0736 12.8052C15.2111 12.8052 14.5111 12.1052 14.5111 11.2427L14.51 9.28585C9.84287 9.67792 7.29175 12.507 7.29175 17.3513V18.249H41.6667L41.6668 17.3513C41.6751 14.7783 40.9834 12.7783 39.6105 11.4033C38.4053 10.1946 36.6435 9.47273 34.4675 9.28685L34.4657 11.2427C34.4657 12.1052 33.7657 12.8052 32.9032 12.8052C32.0407 12.8052 31.3407 12.1052 31.3407 11.2427L31.3397 9.23856Z" fill="#43506E"/>
</svg>
