<svg width="50" height="51" viewBox="0 0 50 51" fill="none" xmlns="http://www.w3.org/2000/svg">
<path d="M36.1929 17.0573C41.8721 19.6077 45.8334 25.3665 45.8334 32.062V39.0933C45.8334 41.6821 43.7607 43.7808 41.2038 43.7808H27.3149C21.2676 43.7808 16.123 39.8676 14.2163 34.4058M36.1929 17.0573C34.7315 10.8759 29.2384 6.28076 22.6853 6.28076H20.3705C11.4214 6.28076 4.16675 13.6261 4.16675 22.687V29.7183C4.16675 32.3071 6.2395 34.4058 8.79638 34.4058H14.2163M36.1929 17.0573C36.4422 18.1115 36.5742 19.2118 36.5742 20.3433C36.5742 28.1098 30.3559 34.4058 22.6853 34.4058H14.2163" stroke="#43506E" stroke-width="3" stroke-linejoin="round"/>
</svg>
