<svg width="50" height="51" viewBox="0 0 50 51" fill="none" xmlns="http://www.w3.org/2000/svg">
<path d="M14.5833 45.8642C18.4739 45.8642 21.7418 43.198 22.6595 39.5931C22.9434 38.4781 23.8494 37.5308 25 37.5308H39.5833M14.5833 45.8642C9.98096 45.8642 6.25 42.1332 6.25 37.5308V10.4475C6.25 6.99573 9.04822 4.19751 12.5 4.19751H33.3333C36.7851 4.19751 39.5833 6.99573 39.5833 10.4475V37.5308M14.5833 45.8642H39.5833C43.4739 45.8642 46.7418 43.198 47.6595 39.5931C47.9434 38.4781 46.9839 37.5308 45.8333 37.5308H39.5833M31.25 14.6142H14.5833M22.9167 25.0308H14.5833" stroke="#43506E" stroke-width="3" stroke-linecap="round"/>
</svg>
