<svg width="50" height="51" viewBox="0 0 50 51" fill="none" xmlns="http://www.w3.org/2000/svg">
<path d="M35.4166 15.324L14.5833 15.324" stroke="#43506E" stroke-width="3" stroke-linecap="round" stroke-linejoin="round"/>
<path d="M35.4166 23.6575L14.5833 23.6575" stroke="#43506E" stroke-width="3" stroke-linecap="round" stroke-linejoin="round"/>
<path d="M25 31.9907L14.5833 31.9907" stroke="#43506E" stroke-width="3" stroke-linecap="round" stroke-linejoin="round"/>
<path d="M41.75 4.90747H8.25C7.14543 4.90747 6.25 5.8029 6.25 6.90747V43.7285C6.25 45.1137 7.62412 46.0795 8.92744 45.6103L15.9059 43.098C16.3939 42.9223 16.9311 42.9431 17.404 43.156L24.1793 46.2048C24.7012 46.4397 25.2988 46.4397 25.8207 46.2048L32.596 43.156C33.0689 42.9431 33.6061 42.9223 34.0941 43.098L41.0726 45.6103C42.3759 46.0795 43.75 45.1137 43.75 43.7285V6.90747C43.75 5.8029 42.8546 4.90747 41.75 4.90747Z" stroke="#43506E" stroke-width="3" stroke-linecap="round"/>
</svg>
