<svg width="51" height="51" viewBox="0 0 51 51" fill="none" xmlns="http://www.w3.org/2000/svg">
<rect x="5.12549" y="4.86279" width="41.6667" height="41.6667" rx="4" stroke="#43506E" stroke-width="3"/>
<path d="M38.459 19.4463V15.1963C38.459 14.0917 37.5636 13.1963 36.459 13.1963H15.459C14.3544 13.1963 13.459 14.0917 13.459 15.1963V36.1963C13.459 37.3009 14.3544 38.1963 15.459 38.1963H36.459C37.5636 38.1963 38.459 37.3009 38.459 36.1963V31.9463" stroke="#43506E" stroke-width="3" stroke-linecap="round" stroke-linejoin="round"/>
<path d="M29.084 25.6963C29.084 23.9704 27.6849 22.5713 25.959 22.5713C24.2331 22.5713 22.834 23.9704 22.834 25.6963C22.834 27.4222 24.2331 28.8213 25.959 28.8213C27.6849 28.8213 29.084 27.4222 29.084 25.6963Z" stroke="#43506E" stroke-width="3"/>
<path d="M29.084 25.6963H38.459" stroke="#43506E" stroke-width="3" stroke-linecap="round" stroke-linejoin="round"/>
</svg>
