<svg width="50" height="51" viewBox="0 0 50 51" fill="none" xmlns="http://www.w3.org/2000/svg">
<rect x="4.16675" y="4.90747" width="41.6667" height="41.6667" rx="4" stroke="#43506E" stroke-width="3"/>
<path d="M37.5 19.4907V15.2407C37.5 14.1362 36.6046 13.2407 35.5 13.2407H14.5C13.3954 13.2407 12.5 14.1362 12.5 15.2407V36.2407C12.5 37.3453 13.3954 38.2407 14.5 38.2407H35.5C36.6046 38.2407 37.5 37.3453 37.5 36.2407V31.9907" stroke="#43506E" stroke-width="3" stroke-linecap="round" stroke-linejoin="round"/>
<path d="M28.125 25.7407C28.125 24.0148 26.7259 22.6157 25 22.6157C23.2741 22.6157 21.875 24.0148 21.875 25.7407C21.875 27.4666 23.2741 28.8657 25 28.8657C26.7259 28.8657 28.125 27.4666 28.125 25.7407Z" stroke="#43506E" stroke-width="3"/>
<path d="M28.125 25.7407H37.5" stroke="#43506E" stroke-width="3" stroke-linecap="round" stroke-linejoin="round"/>
</svg>
