<svg width="45" height="41" viewBox="0 0 45 41" fill="none" xmlns="http://www.w3.org/2000/svg">
<path d="M12.1706 10.2796V6.11296C12.1706 3.81177 14.0361 1.94629 16.3372 1.94629H39.2539C41.5551 1.94629 43.4206 3.81177 43.4206 6.11296V24.863C43.4206 27.1641 41.5551 29.0296 39.2539 29.0296H28.8372M20.5039 11.3213H35.0872M26.7539 19.6546H35.0872M9.2243 30.25C10.8515 31.8772 13.4897 31.8772 15.1169 30.25C15.8983 29.4686 16.9581 29.0296 18.0631 29.0296H18.4206C20.7218 29.0296 22.5872 30.8951 22.5872 33.1963V35.2796C22.5872 37.5808 20.7218 39.4463 18.4206 39.4463H5.92057C3.61939 39.4463 1.75391 37.5808 1.75391 35.2796V33.1963C1.75391 30.8951 3.61939 29.0296 5.92057 29.0296H6.27802C7.38309 29.0296 8.44289 29.4686 9.2243 30.25ZM16.3372 20.6963C16.3372 22.9975 14.4718 24.863 12.1706 24.863C9.86939 24.863 8.00391 22.9975 8.00391 20.6963C8.00391 18.3951 9.86939 16.5296 12.1706 16.5296C14.4718 16.5296 16.3372 18.3951 16.3372 20.6963Z" stroke="#43506E" stroke-width="3" stroke-linecap="round"/>
</svg>
