<svg width="28" height="41" viewBox="0 0 28 41" fill="none" xmlns="http://www.w3.org/2000/svg">
<path fill-rule="evenodd" clip-rule="evenodd" d="M25.3754 0.514663C26.0774 1.02171 26.2348 2.00097 25.727 2.70189L3.29117 33.6672C2.78332 34.3682 1.80252 34.5253 1.10049 34.0183C0.398458 33.5112 0.241046 32.532 0.748897 31.831L23.1847 0.8657C23.6926 0.164777 24.6734 0.00761217 25.3754 0.514663Z" fill="#43506E"/>
<path fill-rule="evenodd" clip-rule="evenodd" d="M26.8539 20.3279C27.4797 20.9294 27.4992 21.9242 26.8975 22.5498L10.3691 39.7348C9.7674 40.3604 8.77234 40.3799 8.14658 39.7783C7.52081 39.1768 7.5013 38.182 8.103 37.5564L24.6314 20.3714C25.2331 19.7458 26.2282 19.7263 26.8539 20.3279Z" fill="#43506E"/>
</svg>
