<svg xmlns="http://www.w3.org/2000/svg" width="280" height="13" viewBox="0 0 280 13" fill="none">
  <path fill-rule="evenodd" clip-rule="evenodd" d="M10.0233 1.42569C10.0343 0.925435 10.4597 0.528573 10.9735 0.539274C29.0141 0.915009 47.0401 1.63553 65.0559 2.35565C66.0659 2.39602 67.0758 2.43639 68.0857 2.4767C87.1137 3.23613 106.132 3.97357 125.166 4.28393C175.379 5.10267 225.119 3.02182 275.25 0.828037C275.845 0.802035 276.912 0.876187 277.701 0.992794C278.062 1.04616 278.506 1.12655 278.803 1.2621C278.881 1.29745 279.028 1.37102 279.162 1.50453C279.307 1.64876 279.537 1.98009 279.418 2.42286C279.321 2.78357 279.05 2.96297 278.955 3.02048C278.832 3.09531 278.705 3.14152 278.611 3.17124C269.937 5.90351 258.975 6.38132 249.834 6.77979C248.479 6.83884 247.164 6.89614 245.903 6.95879C198.135 9.33102 150.18 9.13527 102.331 8.93995C89.1444 8.88613 75.9654 8.83233 62.8006 8.83233H57.8636C87.1465 9.69399 116.435 10.3772 145.727 10.8372C148.119 10.8748 149.955 10.8928 150.833 10.9015L150.922 10.9023C151.131 10.9044 151.278 10.9059 151.353 10.9069C151.371 10.9072 151.389 10.9075 151.402 10.9078C151.407 10.9079 151.418 10.9082 151.43 10.9087C151.431 10.9087 151.436 10.9089 151.444 10.9093C151.452 10.9098 151.462 10.9104 151.474 10.9114C151.474 10.9114 151.524 10.915 151.584 10.9272C151.633 10.9387 151.826 11.0121 151.958 11.094C152.297 11.599 152.042 12.4631 151.766 12.6439C151.69 12.6725 151.579 12.7018 151.546 12.7078C151.528 12.7106 151.498 12.7143 151.487 12.7155C151.466 12.7176 151.449 12.7185 151.443 12.7188C151.43 12.7195 151.419 12.7198 151.415 12.7199C151.405 12.7202 151.395 12.7203 151.389 12.7204C151.375 12.7206 151.357 12.7207 151.337 12.7208C151.224 12.7213 150.954 12.7212 150.509 12.7212C150.322 12.7211 150.104 12.7211 149.853 12.7211H120.121C119.738 12.7211 119.409 12.4961 119.266 12.1745C93.1572 11.6484 67.0513 10.9557 40.9517 10.1281C34.9726 9.93851 29.0093 9.73705 23.0471 9.53563C16.6684 9.32014 10.291 9.1047 3.89721 8.90387C3.27872 8.88445 2.78578 8.86989 2.41712 8.859C2.3162 8.85602 2.22459 8.85331 2.14227 8.85086C1.95188 8.84518 1.80841 8.84076 1.71532 8.83738C1.67081 8.83576 1.6293 8.83408 1.59835 8.83227L1.5974 8.83222C1.58984 8.8318 1.5483 8.8295 1.50424 8.82342C1.49311 8.82189 1.45117 8.81611 1.39979 8.80317C1.37867 8.79784 1.31286 8.78098 1.23449 8.74488C1.19264 8.72434 1.09218 8.66359 1.03559 8.62104C0.952464 8.54448 0.789092 8.3091 0.729489 8.14553C0.701712 7.93232 0.786228 7.54837 0.879607 7.39288C0.95643 7.30286 1.10445 7.17948 1.16782 7.14054C1.27718 7.0792 1.37425 7.05473 1.39775 7.04881L1.399 7.04849C1.46184 7.03262 1.51335 7.02678 1.52512 7.02545L1.52609 7.02534C1.58979 7.01807 1.66611 7.01774 1.67873 7.01768C1.67953 7.01768 1.68008 7.01768 1.68035 7.01768C1.71676 7.01727 1.76485 7.01707 1.82257 7.01699C1.93868 7.01683 2.10542 7.01716 2.32064 7.01765C2.36116 7.01775 2.40347 7.01785 2.44756 7.01795C2.87305 7.01895 3.4646 7.02034 4.22306 7.02034H62.8006C75.9832 7.02034 89.174 7.07416 102.368 7.12799C150.21 7.32319 198.097 7.51857 245.808 5.14915C247.091 5.08545 248.419 5.02721 249.78 4.96753C257.203 4.64202 265.609 4.2734 273.004 2.74008C223.665 4.89562 174.634 6.90278 125.135 6.09567C106.075 5.78489 87.0359 5.04654 68.0095 4.28717C67.0011 4.24693 65.9929 4.20662 64.9846 4.16632C46.9644 3.44604 28.9554 2.72619 10.9337 2.35085C10.4199 2.34015 10.0123 1.92594 10.0233 1.42569ZM1.70986 7.02353C1.70354 7.02316 1.70498 7.02314 1.71164 7.02363L1.70986 7.02353ZM151.363 10.9086C151.368 10.9085 151.37 10.9085 151.366 10.9086L151.363 10.9086Z" fill="#F22969"/>
</svg>