<svg width="51" height="51" viewBox="0 0 51 51" fill="none" xmlns="http://www.w3.org/2000/svg">
<path opacity="0.4" d="M21.4631 7.37753C23.1395 3.84584 27.9832 3.84583 29.6597 7.37753L32.557 13.4812C33.2227 14.8837 34.5095 15.8557 35.9981 16.0806L42.4766 17.0594C46.2252 17.6257 47.7221 22.4153 45.0095 25.1643L40.3216 29.9154C39.2445 31.007 38.7529 32.5799 39.0072 34.1213L40.1139 40.8299C40.7542 44.7116 36.8355 47.6717 33.4827 45.839L27.6881 42.6717C26.3567 41.9439 24.7661 41.9439 23.4346 42.6717L17.64 45.839C14.2872 47.6717 10.3685 44.7116 11.0088 40.8299L12.1155 34.1213C12.3698 32.5799 11.8783 31.0071 10.8011 29.9154L6.11318 25.1644C3.40067 22.4153 4.89746 17.6257 8.64607 17.0594L15.1246 16.0806C16.6132 15.8557 17.9 14.8837 18.5657 13.4812L21.4631 7.37753Z" fill="#1B2A63"/>
</svg>
