<svg width="50" height="51" viewBox="0 0 50 51" fill="none" xmlns="http://www.w3.org/2000/svg">
<path d="M14.5833 14.6141V10.4474C14.5833 8.14624 16.4488 6.28076 18.75 6.28076H41.6666C43.9678 6.28076 45.8333 8.14624 45.8333 10.4474V29.1974C45.8333 31.4986 43.9678 33.3641 41.6666 33.3641H31.25M22.9166 15.6558H37.5M29.1666 23.9891H37.5M11.637 34.5845C13.2642 36.2117 15.9024 36.2117 17.5296 34.5845C18.311 33.8031 19.3708 33.3641 20.4759 33.3641H20.8333C23.1345 33.3641 25 35.2296 25 37.5308V39.6141C25 41.9153 23.1345 43.7808 20.8333 43.7808H8.33329C6.03211 43.7808 4.16663 41.9153 4.16663 39.6141V37.5308C4.16663 35.2296 6.03211 33.3641 8.33329 33.3641H8.69074C9.79581 33.3641 10.8556 33.8031 11.637 34.5845ZM18.75 25.0308C18.75 27.3319 16.8845 29.1974 14.5833 29.1974C12.2821 29.1974 10.4166 27.3319 10.4166 25.0308C10.4166 22.7296 12.2821 20.8641 14.5833 20.8641C16.8845 20.8641 18.75 22.7296 18.75 25.0308Z" stroke="#43506E" stroke-width="3" stroke-linecap="round"/>
</svg>
