<svg width="343" height="10" viewBox="0 0 343 10" fill="none" xmlns="http://www.w3.org/2000/svg">
<path fill-rule="evenodd" clip-rule="evenodd" d="M11.4224 0.735842C11.4359 0.339673 11.9585 0.0253846 12.5895 0.0338588C34.7494 0.331417 56.8912 0.902026 79.0205 1.47231C80.2611 1.50428 81.5016 1.53625 82.7421 1.56817C106.115 2.16959 129.475 2.7536 152.855 2.99938C214.533 3.64778 275.63 1.99988 337.208 0.26254C337.938 0.241949 339.249 0.300673 340.219 0.393018C340.663 0.435283 341.207 0.498947 341.572 0.606292C341.668 0.634288 341.849 0.692547 342.014 0.798282C342.191 0.912503 342.474 1.17489 342.328 1.52554C342.209 1.81119 341.876 1.95327 341.759 1.99882C341.607 2.05808 341.452 2.09467 341.336 2.11821C330.682 4.28199 317.217 4.66039 305.988 4.97594C304.324 5.02271 302.709 5.06809 301.16 5.1177C242.485 6.99635 183.581 6.84133 124.807 6.68666C108.609 6.64403 92.421 6.60142 76.2503 6.60142H70.1861C106.155 7.2838 142.131 7.82487 178.111 8.18915C181.049 8.2189 183.304 8.2332 184.383 8.24004L184.492 8.24073C184.748 8.24236 184.929 8.24354 185.022 8.24438C185.044 8.24459 185.065 8.24481 185.082 8.24505C185.089 8.24515 185.102 8.24535 185.116 8.24574C185.118 8.24579 185.124 8.24594 185.133 8.24626C185.143 8.24661 185.156 8.24715 185.17 8.24795C185.17 8.24795 185.231 8.2508 185.305 8.26045C185.366 8.26957 185.603 8.32767 185.765 8.3925C186.181 8.79243 185.868 9.47674 185.53 9.61995C185.436 9.64262 185.299 9.66577 185.259 9.67054C185.236 9.67273 185.2 9.6757 185.186 9.67665C185.16 9.67828 185.14 9.67901 185.133 9.67925C185.116 9.67984 185.102 9.68008 185.097 9.68017C185.085 9.68038 185.074 9.68048 185.066 9.68054C185.049 9.68067 185.027 9.68076 185.002 9.68083C184.863 9.68121 184.531 9.68117 183.985 9.68112C183.755 9.6811 183.487 9.68107 183.18 9.68107H146.658C146.188 9.68107 145.784 9.50289 145.609 9.24824C113.538 8.83159 81.4715 8.28301 49.4126 7.62759C42.0684 7.47745 34.7435 7.31791 27.42 7.15839C19.5848 6.98774 11.7513 6.81712 3.89759 6.65808C3.13788 6.6427 2.5324 6.63117 2.07956 6.62255C1.95559 6.62018 1.84307 6.61804 1.74195 6.6161C1.50809 6.6116 1.33186 6.6081 1.21752 6.60542C1.16284 6.60414 1.11185 6.60281 1.07384 6.60138L1.07267 6.60133C1.06339 6.601 1.01236 6.59918 0.958242 6.59437C0.944565 6.59316 0.893058 6.58858 0.829947 6.57833C0.804002 6.57411 0.723169 6.56076 0.626907 6.53217C0.575498 6.5159 0.452092 6.4678 0.382588 6.43409C0.28048 6.37347 0.079805 6.18706 0.00659345 6.05752C-0.0275258 5.88868 0.0762876 5.58461 0.190988 5.46148C0.285351 5.39018 0.467169 5.29247 0.545012 5.26164C0.679343 5.21306 0.798575 5.19368 0.827439 5.18899L0.828971 5.18874C0.906165 5.17617 0.969432 5.17155 0.983885 5.17049L0.985075 5.17041C1.06332 5.16465 1.15707 5.16439 1.17257 5.16434C1.17356 5.16434 1.17423 5.16434 1.17456 5.16434C1.21929 5.16401 1.27836 5.16386 1.34926 5.16379C1.49187 5.16367 1.69668 5.16393 1.96104 5.16432C2.01082 5.16439 2.06279 5.16447 2.11695 5.16455C2.63959 5.16534 3.36621 5.16644 4.29784 5.16644H76.2503C92.4429 5.16644 108.645 5.20906 124.852 5.2517C183.617 5.40628 242.438 5.56101 301.044 3.68458C302.619 3.63414 304.25 3.58802 305.922 3.54075C315.04 3.28297 325.365 2.99105 334.449 1.77676C273.844 3.4838 213.619 5.07335 152.817 4.43416C129.406 4.18805 106.019 3.60332 82.6485 3.00195C81.4099 2.97008 80.1714 2.93816 78.933 2.90625C56.7983 2.33583 34.6773 1.76576 12.5407 1.46851C11.9096 1.46004 11.4089 1.13201 11.4224 0.735842ZM1.21081 5.16897C1.20305 5.16868 1.20482 5.16867 1.213 5.16905L1.21081 5.16897ZM185.034 8.24573C185.04 8.24563 185.043 8.24563 185.038 8.24566L185.034 8.24573Z" fill="#43506E"/>
</svg>
