<?xml version="1.0" encoding="UTF-8"?>
<svg id="katman_1" data-name="katman 1" xmlns="http://www.w3.org/2000/svg" version="1.1" viewBox="0 0 30 20">
  <defs>
    <style>
      .cls-1 {
        fill: #fff;
        stroke-width: 0px;
      }
    </style>
  </defs>
  <path class="cls-1" d="M29.1,2.4c-1.2,0-2.3,0-3.5,0h-1.5c0,.4-.1.8-.2,1.2,0,.3-.1.6-.2.9,0,.4-.1.9-.2,1.3,0,.3-.1.7-.2,1,0,.2,0,.4,0,.6,0,.1,0,.2-.2.2-1.6,0-3.2,0-4.8,0-.1,0-.1,0-.1-.1,0-.5.2-1.1.3-1.6.1-.6.2-1.3.3-1.9,0-.4.1-.8.2-1.2,0-.1,0-.1-.1-.2,0,0-.1,0-.2,0-2.6,0-5.1,0-7.7,0-.7,0-1.4,0-2.1,0-.4,0-.7.3-.7.7,0,.4.3.7.7.7,1.7,0,3.5,0,5.2,0,.2,0,.4,0,.6,0,.2,0,.4.2.4.4.1.5-.1.9-.7.9-.5,0-1,0-1.5,0-.1,0-.3,0-.4,0-.3.1-.4.5-.4.8,0,.2.3.5.7.5.8,0,1.7,0,2.6,0,.4,0,.7.3.7.5,0,.5-.2.8-.7.8-2.3,0-4.7,0-7,0h0c-1.1,0-2.2,0-3.2,0s-2.5,0-3.7,0c-.2,0-.3,0-.4,0-.3.2-.4.5-.3.8,0,.3.3.5.7.5,1.4,0,2.9,0,4.3,0,0,0,0,0,0,0h1.3s0,0,0,0c1.6,0,3.3,0,4.9,0,.5,0,.7.2.7.7,0,.3-.3.7-.6.7-.4,0-.7,0-1.1,0-1.6,0-3.2,0-4.8,0-.3,0-.6.2-.6.4-.2.5.1,1,.7,1,2.6,0,5.2,0,7.8,0,.2,0,.3,0,.5.1.4.2.4.8,0,1.1-.2.1-.3.2-.5.2-1.6,0-3.2,0-4.8,0-.1,0-.3,0-.4,0-.3.1-.4.4-.4.7,0,.3.2.5.5.6.3,0,.5,0,.8,0,.7,0,1.4,0,2.2,0,.2,0,.5,0,.6.3.3.5,0,1.1-.7,1.1-.5,0-1,0-1.5,0-.5,0-.8.4-.7.9,0,.2.3.5.6.5,1.3,0,2.6,0,3.9,0s1.6,0,2.4,0c0,0,.2,0,.2,0,0,0,0-.2,0-.3,0-.8.3-1.6.4-2.4.1-.7.2-1.5.4-2.2,0-.1,0-.1.1-.1,1.6,0,3.2,0,4.8,0,.1,0,.1,0,.1.1,0,.2,0,.4-.1.7,0,.1,0,.2,0,.3v.3c0,0,0,0,0,0,0,.2,0,.4,0,.6,0,0,0,0,0,0,0,.3-.1.6-.1.9,0,.6-.2,1.3-.3,1.9,0,.1,0,.1.1.1.6,0,1.2,0,1.9,0,1,0,2,0,2.9,0,0,0,.1,0,.2-.1,0-.2,0-.4,0-.6.1-.5.2-1.1.3-1.6.1-.5.2-1.1.3-1.6,0-.5.2-.9.2-1.4,0-.6.2-1.2.3-1.8,0-.4.1-.9.2-1.3,0-.4.1-.7.2-1.1,0-.2,0-.3,0-.5,0-.4.1-.8.2-1.2,0-.3,0-.6.1-.8.1-.4.1-.9.2-1.3.1-.5.2-1.1.3-1.6,0-.1,0-.1,0-.1"/>
  <path class="cls-1" d="M4.5,6.5h3c1,0,2,0,3,0,.2,0,.3,0,.4-.1.2-.2.3-.5.2-.8,0-.3-.4-.5-.7-.5-1.9,0-3.9,0-5.8,0-.2,0-.3,0-.5.1-.3.2-.4.5-.3.9,0,.2.4.4.7.4"/>
  <path class="cls-1" d="M6.8,13.5c-.7,0-1.3,0-2,0s-1.3,0-1.9,0c-.1,0-.3,0-.4,0-.4.2-.5.8-.2,1.1.2.2.4.2.6.2.7,0,1.3,0,2,0s1.3,0,2,0c.4,0,.7-.3.7-.7,0-.4-.3-.7-.7-.7"/>
</svg>