<svg width="160" height="50" viewBox="0 0 160 50" fill="none" xmlns="http://www.w3.org/2000/svg">
<g id="Airbnb svg" clip-path="url(#clip0_422_1234)">
<path id="Vector" d="M84.1484 12.7169C84.1484 14.5082 82.7112 15.9511 80.9271 15.9511C79.1429 15.9511 77.7057 14.5082 77.7057 12.7169C77.7057 10.9257 79.0934 9.48274 80.9271 9.48274C82.7608 9.5325 84.1484 10.9754 84.1484 12.7169ZM70.8666 19.235C70.8666 19.5336 70.8666 20.0311 70.8666 20.0311C70.8666 20.0311 69.3302 18.0409 66.0593 18.0409C60.6574 18.0409 56.4449 22.1707 56.4449 27.8927C56.4449 33.5649 60.6078 37.7445 66.0593 37.7445C69.3798 37.7445 70.8666 35.7044 70.8666 35.7044V36.5503C70.8666 36.9484 71.1639 37.2469 71.5604 37.2469H75.5747V18.5384C75.5747 18.5384 71.9073 18.5384 71.5604 18.5384C71.1639 18.5384 70.8666 18.8867 70.8666 19.235ZM70.8666 31.2264C70.1232 32.321 68.6364 33.2664 66.8523 33.2664C63.6805 33.2664 61.2521 31.2761 61.2521 27.8927C61.2521 24.5092 63.6805 22.519 66.8523 22.519C68.5869 22.519 70.1727 23.5141 70.8666 24.559V31.2264ZM78.5482 18.5384H83.3059V37.2469H78.5482V18.5384ZM149.616 18.0409C146.345 18.0409 144.809 20.0311 144.809 20.0311V9.5325H140.051V37.2469C140.051 37.2469 143.718 37.2469 144.065 37.2469C144.462 37.2469 144.759 36.8986 144.759 36.5503V35.7044C144.759 35.7044 146.296 37.7445 149.566 37.7445C154.968 37.7445 159.181 33.5649 159.181 27.8927C159.181 22.2204 154.968 18.0409 149.616 18.0409ZM148.823 33.2166C146.989 33.2166 145.552 32.2712 144.809 31.1766V24.5092C145.552 23.5141 147.138 22.4692 148.823 22.4692C151.995 22.4692 154.423 24.4595 154.423 27.8429C154.423 31.2264 151.995 33.2166 148.823 33.2166ZM137.573 26.1512V37.2966H132.815V26.6985C132.815 23.6136 131.824 22.3697 129.148 22.3697C127.711 22.3697 126.224 23.116 125.282 24.2107V37.2469H120.525V18.5384H124.291C124.688 18.5384 124.985 18.8867 124.985 19.235V20.0311C126.373 18.5882 128.206 18.0409 130.04 18.0409C132.122 18.0409 133.856 18.6379 135.244 19.8321C136.929 21.2253 137.573 23.0165 137.573 26.1512ZM108.978 18.0409C105.707 18.0409 104.17 20.0311 104.17 20.0311V9.5325H99.4126V37.2469C99.4126 37.2469 103.08 37.2469 103.427 37.2469C103.823 37.2469 104.121 36.8986 104.121 36.5503V35.7044C104.121 35.7044 105.657 37.7445 108.928 37.7445C114.33 37.7445 118.542 33.5649 118.542 27.8927C118.592 22.2204 114.379 18.0409 108.978 18.0409ZM108.185 33.2166C106.351 33.2166 104.914 32.2712 104.17 31.1766V24.5092C104.914 23.5141 106.5 22.4692 108.185 22.4692C111.356 22.4692 113.785 24.4595 113.785 27.8429C113.785 31.2264 111.356 33.2166 108.185 33.2166ZM95.2992 18.0409C96.7364 18.0409 97.4798 18.2896 97.4798 18.2896V22.718C97.4798 22.718 93.5151 21.3746 91.0371 24.2107V37.2966H86.2795V18.5384C86.2795 18.5384 89.9468 18.5384 90.2937 18.5384C90.6902 18.5384 90.9876 18.8867 90.9876 19.235V20.0311C91.8796 18.9862 93.8124 18.0409 95.2992 18.0409ZM45.8888 35.5552C45.641 34.9581 45.3932 34.3113 45.1454 33.7639C44.7489 32.8683 44.3525 32.0225 44.0055 31.2264L43.956 31.1766C40.5364 23.7131 36.869 16.1501 33.0034 8.68664L32.8547 8.3881C32.4583 7.64175 32.0618 6.84565 31.6653 6.04954C31.1697 5.15392 30.6741 4.20855 29.8812 3.31293C28.2953 1.32267 26.0156 0.228027 23.5872 0.228027C21.1092 0.228027 18.8791 1.32267 17.2436 3.21342C16.5002 4.10904 15.9551 5.05441 15.4595 5.95003C15.063 6.74613 14.6666 7.54224 14.2701 8.28859L14.1214 8.58713C10.3054 16.0506 6.58843 23.6136 3.16885 31.0771L3.11929 31.1766C2.77238 31.9727 2.3759 32.8186 1.97943 33.7142C1.73163 34.2615 1.48384 34.8586 1.23604 35.5054C0.591775 37.3464 0.393539 39.0879 0.641334 40.8791C1.18648 44.6109 3.66444 47.7455 7.08402 49.1387C8.37255 49.686 9.71065 49.9348 11.0983 49.9348C11.4948 49.9348 11.9904 49.8851 12.3868 49.8353C14.0223 49.6363 15.7073 49.089 17.3428 48.1436C19.3747 46.9992 21.3075 45.3572 23.4881 42.9689C25.6687 45.3572 27.651 46.9992 29.6334 48.1436C31.2689 49.089 32.9539 49.6363 34.5893 49.8353C34.9858 49.8851 35.4814 49.9348 35.8779 49.9348C37.2655 49.9348 38.6532 49.686 39.8921 49.1387C43.3613 47.7455 45.7897 44.5611 46.3348 40.8791C46.7313 39.1376 46.5331 37.3962 45.8888 35.5552ZM23.5376 38.1425C20.8614 34.7591 19.1269 31.5746 18.5322 28.8878C18.2844 27.7434 18.2348 26.7483 18.3835 25.8526C18.4826 25.0565 18.78 24.3599 19.1764 23.7629C20.1181 22.4194 21.704 21.5736 23.5376 21.5736C25.3713 21.5736 27.0068 22.3697 27.8988 23.7629C28.2953 24.3599 28.5927 25.0565 28.6918 25.8526C28.8405 26.7483 28.7909 27.7931 28.5431 28.8878C27.9484 31.5249 26.2138 34.7093 23.5376 38.1425ZM43.3117 40.4811C42.9648 43.0684 41.2302 45.3074 38.8018 46.3026C37.6124 46.8001 36.3239 46.9494 35.0353 46.8001C33.7964 46.6509 32.5574 46.2528 31.2689 45.5065C29.4847 44.5113 27.7006 42.9689 25.6191 40.6801C28.89 36.6498 30.8724 32.9678 31.6158 29.6839C31.9627 28.1414 32.0122 26.7483 31.8636 25.4546C31.6653 24.2107 31.2193 23.0663 30.5255 22.0711C28.9891 19.8321 26.4121 18.5384 23.5376 18.5384C20.6632 18.5384 18.0861 19.8819 16.5498 22.0711C15.856 23.0663 15.4099 24.2107 15.2117 25.4546C15.0135 26.7483 15.063 28.1912 15.4595 29.6839C16.2029 32.9678 18.2348 36.6996 21.4562 40.7299C19.4242 43.0187 17.5905 44.5611 15.8064 45.5562C14.5179 46.3026 13.2789 46.7006 12.0399 46.8499C10.7018 46.9992 9.41329 46.8001 8.27344 46.3523C5.84504 45.3572 4.11047 43.1182 3.76356 40.5308C3.61488 39.2869 3.714 38.043 4.20959 36.6498C4.35827 36.1522 4.60606 35.6547 4.85386 35.0576C5.20077 34.2615 5.59724 33.4156 5.99372 32.5698L6.04328 32.4703C9.46285 25.0565 13.1302 17.4935 16.9463 10.1296L17.095 9.83104C17.4914 9.08469 17.8879 8.28859 18.2844 7.54224C18.6808 6.74613 19.1269 5.99979 19.672 5.35295C20.7128 4.15879 22.1004 3.51196 23.6368 3.51196C25.1731 3.51196 26.5607 4.15879 27.6015 5.35295C28.1466 5.99979 28.5927 6.74613 28.9891 7.54224C29.3856 8.28859 29.7821 9.08469 30.1786 9.83104L30.3272 10.1296C34.0937 17.5433 37.7611 25.1063 41.1807 32.52V32.5698C41.5771 33.3659 41.9241 34.2615 42.3205 35.0576C42.5683 35.6547 42.8161 36.1522 42.9648 36.6498C43.3613 37.9435 43.51 39.1874 43.3117 40.4811Z" fill="#A2A8C9"/>
</g>
<defs>
<clipPath id="clip0_422_1234">
<rect width="158.639" height="49.7068" fill="white" transform="translate(0.541992 0.227783)"/>
</clipPath>
</defs>
</svg>
