<svg width="193" height="33" viewBox="0 0 193 33" fill="none" xmlns="http://www.w3.org/2000/svg">
<g id="Booking.com svg" clip-path="url(#clip0_422_1236)">
<g id="layer1">
<g id="g3358">
<g id="Group">
<g id="g3360">
<g id="Group_2">
<g id="Group_3">
<g id="g3366">
<path id="path3372" d="M76.2002 3.00241C76.2002 1.33821 77.5399 0.0702472 79.116 0.0702472C80.6921 0.0702472 82.0318 1.41746 82.0318 3.00241C82.0318 4.58736 80.6921 5.93457 79.116 5.93457C77.4611 5.93457 76.2002 4.58736 76.2002 3.00241Z" fill="#A2A8C9"/>
<path id="path3374" d="M122.222 22.4973C122.222 20.8331 123.561 19.5651 125.137 19.5651C126.714 19.5651 128.053 20.9123 128.053 22.4973C128.053 24.0822 126.714 25.4294 125.137 25.4294C123.483 25.4294 122.222 24.1615 122.222 22.4973Z" fill="#A2A8C9"/>
<path id="path3376" d="M28.3659 21.2293C25.8442 21.2293 24.1105 19.2481 24.1105 16.3952C24.1105 13.5423 25.8442 11.5611 28.3659 11.5611C30.8877 11.5611 32.6214 13.5423 32.6214 16.3952C32.6214 19.3274 30.8877 21.2293 28.3659 21.2293ZM28.3659 7.20249C23.086 7.20249 19.2246 11.0856 19.2246 16.316C19.2246 21.5463 23.086 25.4294 28.3659 25.4294C33.7246 25.4294 37.5861 21.5463 37.5861 16.316C37.5861 11.0856 33.6458 7.20249 28.3659 7.20249Z" fill="#A2A8C9"/>
<path id="path3378" d="M70.5266 16.8706C70.2902 16.4744 70.0538 16.1574 69.8174 15.9196L69.6598 15.7611L69.8174 15.6026C70.0538 15.3649 70.2902 15.0479 70.5266 14.6517L75.1761 7.67788H69.5022L65.956 13.146C65.7195 13.463 65.3255 13.6215 64.7739 13.6215H63.9858V3.24002C63.9858 1.17958 62.725 0.862587 61.3065 0.862587H58.9424V25.3501H63.9858V17.9801H64.4587C65.0103 17.9801 65.4044 18.0593 65.6408 18.3763L68.3989 23.6859C69.187 25.1124 69.975 25.3501 71.3935 25.3501H75.2549L72.3392 20.5952L70.5266 16.8706Z" fill="#A2A8C9"/>
<path id="path3380" d="M95.0344 7.2024C92.4338 7.2024 90.8577 8.31186 89.9121 9.34208L89.5968 9.65907L89.518 9.26283C89.2816 8.23261 88.336 7.67788 86.9963 7.67788H84.7109V25.3501H89.7545V17.1083C89.7545 16.3159 89.8333 15.6026 90.0697 14.9687C90.6213 13.0667 92.1974 11.878 94.0887 11.878C95.6648 11.878 96.2952 12.6705 96.2952 14.8894V22.5764C96.2952 24.3991 97.1621 25.2709 98.9746 25.2709H101.339V14.0177C101.26 9.57982 99.1322 7.2024 95.0344 7.2024Z" fill="#A2A8C9"/>
<path id="path3382" d="M79.1947 7.59854H76.8306V21.2291V25.2708H79.3523H79.4312H80.6132H81.7953V10.293C81.7953 8.47026 80.9284 7.59854 79.1947 7.59854Z" fill="#A2A8C9"/>
<path id="path3384" d="M47.9885 21.2292C45.4667 21.2292 43.733 19.248 43.733 16.3951C43.733 13.5422 45.4667 11.561 47.9885 11.561C50.5102 11.561 52.2439 13.5422 52.2439 16.3951C52.3228 19.3272 50.589 21.2292 47.9885 21.2292ZM47.9885 7.20235C42.7086 7.20235 38.8472 11.0855 38.8472 16.3158C38.8472 21.5462 42.7086 25.5085 47.9885 25.5085C53.3472 25.5085 57.2086 21.6254 57.2086 16.3951C57.2086 11.1647 53.3472 7.20235 47.9885 7.20235Z" fill="#A2A8C9"/>
</g>
</g>
</g>
</g>
</g>
</g>
<g id="g3386">
<g id="Group_4">
<g id="Group_5">
<g id="g3388">
<g id="Group_6">
<g id="Group_7">
<g id="g3394">
<g id="Group_8">
<g id="Group_9">
<g id="g3400">
<path id="path3406" d="M155.399 21.2291C152.877 21.2291 151.144 19.2479 151.144 16.395C151.144 13.5421 152.877 11.5609 155.399 11.5609C157.921 11.5609 159.655 13.5421 159.655 16.395C159.655 19.3271 157.921 21.2291 155.399 21.2291ZM155.399 7.20226C150.119 7.20226 146.258 11.0854 146.258 16.3157C146.258 21.5461 150.119 25.4292 155.399 25.4292C160.679 25.5085 164.619 21.7046 164.619 16.395C164.619 11.0854 160.679 7.20226 155.399 7.20226Z" fill="#A2A8C9"/>
<path id="path3408" d="M111.82 20.5159C109.062 20.5159 108.116 18.1385 108.116 15.8403C108.116 14.8101 108.353 11.6402 111.584 11.6402C113.16 11.6402 115.288 12.1157 115.288 15.9988C115.288 19.7235 113.396 20.5159 111.82 20.5159ZM117.888 7.51932C116.943 7.51932 116.233 7.91556 115.839 8.62879L115.682 8.86653L115.445 8.62879C114.657 7.91556 113.16 7.12309 110.796 7.12309C106.146 7.12309 102.994 10.6892 102.994 15.9196C102.994 21.1499 106.225 24.8746 110.953 24.8746C112.53 24.8746 113.79 24.4783 114.815 23.7651L115.209 23.4481V23.9236C115.209 26.301 113.712 27.569 110.953 27.569C109.614 27.569 108.432 27.252 107.565 26.935C106.54 26.618 105.91 26.8557 105.437 27.9652L105.043 28.9162L104.491 30.3426L104.807 30.5011C106.54 31.4521 108.826 32.0068 110.953 32.0068C115.209 32.0068 120.174 29.7879 120.174 23.6066V7.36083L117.888 7.51932Z" fill="#A2A8C9"/>
</g>
</g>
</g>
</g>
</g>
</g>
</g>
</g>
</g>
</g>
<g id="g3410">
<g id="Group_10">
<g id="Group_11">
<g id="g3412">
<g id="Group_12">
<g id="Group_13">
<g id="g3418">
<path id="path3424" d="M9.68923 21.0705H5.59138V16.1572C5.59138 15.127 5.98539 14.5722 6.85224 14.4137H9.6104C11.5805 14.4137 12.8414 15.6817 12.8414 17.7421C12.9202 19.8026 11.7382 21.0705 9.68923 21.0705ZM5.59138 7.83618V6.56822C5.59138 5.45875 6.06418 4.90402 7.08864 4.82477H9.13759C10.9501 4.82477 11.9745 5.93424 11.9745 7.67768C11.9745 9.02489 11.2653 10.6891 9.21638 10.6891H5.51255L5.59138 7.83618ZM14.8903 12.7495L14.1811 12.3533L14.8115 11.7986C15.5208 11.1646 16.7816 9.65888 16.7816 7.2022C16.7816 3.31907 13.787 0.862391 9.21638 0.862391H4.01529H3.38487C2.04519 0.941637 0.941895 2.0511 0.941895 3.39831V25.1914H3.38487H9.374C14.4963 25.1914 17.8061 22.4177 17.8061 18.0591C17.7273 15.7609 16.7028 13.7005 14.8903 12.7495Z" fill="#A2A8C9"/>
<path id="path3426" d="M186.92 7.28155C184.871 7.28155 182.822 8.23252 181.562 9.89672L181.168 10.3722L180.852 9.81747C179.907 8.15327 178.331 7.28155 176.124 7.28155C173.76 7.28155 172.263 8.54951 171.475 9.34198L171.002 9.89672L170.844 9.18349C170.608 8.23252 169.741 7.67778 168.401 7.67778H166.273V25.2708H171.081V17.5045C171.081 16.7913 171.159 16.1573 171.317 15.444C171.79 13.5421 173.051 11.5609 175.1 11.7194C176.439 11.8779 177.07 12.8289 177.07 14.8101V25.2708H181.877V17.5045C181.877 16.6328 181.956 15.9988 182.113 15.3648C182.507 13.5421 183.847 11.7194 185.817 11.7194C187.314 11.7194 187.866 12.5911 187.866 14.8101V22.6556C187.866 24.399 188.654 25.1915 190.388 25.1915H192.673V13.9383C192.752 9.50048 190.86 7.28155 186.92 7.28155Z" fill="#A2A8C9"/>
<path id="path3428" d="M143.42 19.1687C143.42 19.1687 141.371 21.3876 138.613 21.3876C136.17 21.3876 133.649 19.8819 133.649 16.4743C133.649 13.5421 135.619 11.4817 138.377 11.4817C139.244 11.4817 140.268 11.7987 140.426 12.3534V12.4326C140.82 13.7006 141.923 13.7006 142.159 13.7006H144.76V11.4024C144.76 8.39101 140.899 7.28155 138.298 7.28155C132.782 7.28155 128.763 11.1647 128.763 16.4743C128.763 21.7839 132.703 25.667 138.219 25.667C142.948 25.667 145.548 22.4971 145.548 22.4971L145.706 22.3386L143.657 18.8517L143.42 19.1687Z" fill="#A2A8C9"/>
</g>
</g>
</g>
</g>
</g>
</g>
</g>
</g>
</g>
<defs>
<clipPath id="clip0_422_1236">
<rect width="191.716" height="31.9526" fill="white" transform="translate(0.941895 0.104736)"/>
</clipPath>
</defs>
</svg>
