<svg width="161" height="23" viewBox="0 0 161 23" fill="none" xmlns="http://www.w3.org/2000/svg">
<g id="Group">
<path id="Vector" d="M119.998 21.6331L115.036 12.9284C116.113 12.4128 117.023 11.6035 117.659 10.5936C118.296 9.58369 118.635 8.41438 118.636 7.22043C118.636 3.71784 115.785 0.868053 112.282 0.868053H101.671V21.6323H106.39V13.5728H110.146L114.739 21.6331H119.998ZM106.312 9.56442V4.88643H111.398L111.379 4.89442C112.927 4.97752 113.913 5.87485 113.913 7.23002C113.913 8.57042 112.857 9.50969 111.281 9.56562H106.312V9.56442ZM82.3987 21.6331V0.868053H97.9133V4.8301H87.2453V8.98432H96.5988V13.0347H87.2453V17.4641H98.441V21.6331H82.3987ZM60.2708 21.6331L55.3092 12.9284C56.386 12.4128 57.2951 11.6034 57.9319 10.5935C58.5686 9.58357 58.907 8.4143 58.9081 7.22043C58.9081 3.71784 56.0583 0.868053 52.5557 0.868053H41.9432V21.6323H46.6628V13.5728H50.4199L55.0127 21.6331H60.2708ZM46.5841 9.56442V4.88643H51.6708L51.6508 4.89442C53.1989 4.97752 54.1861 5.87485 54.1861 7.23002C54.1861 8.57042 53.129 9.50969 51.5533 9.56562H46.5841V9.56442ZM29.3671 22.1449C35.0447 22.1449 38.4354 18.8804 38.4354 13.4134V0.883239H33.5893V13.0894C33.5893 16.0454 32.0503 17.741 29.3675 17.741H29.3647C26.6819 17.741 25.1438 16.0458 25.1438 13.0894V0.883239H20.2956V13.4142C20.2956 18.8808 23.6863 22.1453 29.3647 22.1453H29.3671V22.1449ZM13.9572 10.1325C16.7539 11.0862 18.117 13.4653 18.117 15.7594C18.117 18.9915 15.4926 21.6228 12.2632 21.6331H0.799805V0.866456H11.3579C14.1062 0.892025 16.322 3.12575 16.3252 5.87445C16.3269 6.72723 16.1102 7.56624 15.6957 8.3115C15.2811 9.05675 14.6826 9.68342 13.9572 10.1317V10.1325ZM5.5573 17.7586H10.8557C12.5213 17.7586 13.3927 16.5165 13.3927 15.2884C13.3927 14.2991 12.606 12.9064 10.8557 12.9064H5.5573V17.7586ZM9.43704 9.03306C10.6572 9.03306 11.6144 8.09059 11.6144 6.88723C11.6144 5.72383 10.6156 4.74141 9.43624 4.74141H5.5573V9.03306H9.43704ZM75.6368 10.1285C78.4334 11.0814 79.7966 13.4613 79.7966 15.7554C79.7966 18.9879 77.1721 21.618 73.9428 21.6291L62.4798 21.6283V0.862463L73.0363 0.862061C75.7854 0.888029 78.0012 3.12215 78.0043 5.87125C78.006 6.72391 77.7893 7.56279 77.3747 8.30791C76.9602 9.05302 76.3618 9.67954 75.6364 10.1277L75.6368 10.1285ZM67.2369 17.7546H72.5349C74.2005 17.7546 75.0719 16.5125 75.0719 15.2844C75.0719 14.2955 74.2844 12.9024 72.5349 12.9024H67.2369V17.7546ZM71.1154 9.02906C72.3372 9.02906 73.2944 8.08659 73.2944 6.88324C73.2944 5.71983 72.2956 4.73741 71.1154 4.73741H67.2369V9.02906H71.1154ZM140.535 21.6331L135.573 12.9284C136.65 12.4127 137.559 11.6033 138.195 10.5934C138.832 9.5835 139.17 8.41426 139.171 7.22043C139.171 3.71784 136.322 0.868053 132.819 0.868053H122.207V21.6323H126.927V13.5728H130.684L135.276 21.6331H140.535H140.535ZM126.848 9.56442V4.88643H131.934L131.914 4.89442C133.463 4.97752 134.45 5.87485 134.45 7.23002C134.45 8.57042 133.393 9.50969 131.817 9.56562H126.848V9.56442ZM147.43 21.6331V13.1717L139.193 0.868053H145.244L149.986 8.00709L154.748 0.868053H160.8L152.542 13.1717V21.6331H147.43Z" fill="#A2A8C9"/>
</g>
</svg>
