<svg width="219" height="79" viewBox="0 0 219 79" fill="none" xmlns="http://www.w3.org/2000/svg">
<g id="Expedia svg">
<path id="Vector" fill-rule="evenodd" clip-rule="evenodd" d="M56.4759 30.6959C58.8297 35.2583 59.3943 40.7355 57.6051 45.978C54.1171 56.1974 43.0051 61.6544 32.7857 58.1664C28.3716 56.6598 24.8458 53.7307 22.5459 50.0656C25.5884 48.6135 35.945 43.5303 37.9858 42.3341C39.6625 41.357 42.1588 39.9168 42.1588 39.9168L43.2176 42.0749L44.8343 52.71L46.0693 51.997L46.8909 37.1424C49.3858 35.5823 51.5846 34.0644 53.8859 32.4759L53.8865 32.4753C54.7293 31.8937 55.586 31.3023 56.4759 30.6959ZM55.5581 29.1041C55.5577 29.1041 55.5576 29.1039 55.5572 29.1039C54.5865 29.5717 53.6456 30.0181 52.7199 30.4571C50.1934 31.6559 47.7796 32.8011 45.1813 34.1818L31.9061 27.4659L30.6714 28.1788L39.073 34.8965L40.4105 36.889L40.4126 36.8925C40.4126 36.8925 37.9173 38.3343 36.2326 39.2978C34.1765 40.4671 24.5964 46.8942 21.8175 48.8032C19.3875 44.2064 18.7853 38.6562 20.5973 33.3471C24.0853 23.1277 35.1972 17.6707 45.4166 21.1586C49.7684 22.6439 53.2564 25.5116 55.5581 29.1041Z" fill="#A2A8C9"/>
<path id="Vector_2" fill-rule="evenodd" clip-rule="evenodd" d="M194.991 35.3111V33.1646H198.774V52.7174H194.882V50.4969C193.493 52.1138 191.541 53.1825 188.718 53.1825C183.16 53.1825 179.587 48.7523 179.587 42.9526C179.587 37.1934 183.16 32.7229 188.718 32.7229C191.188 32.7229 193.479 33.6548 194.991 35.3111ZM194.73 39.1484C193.578 37.4435 191.63 36.3942 189.338 36.3942C185.898 36.3942 183.527 39.3078 183.527 42.9526C183.527 46.5975 185.81 49.5982 189.338 49.5982C191.696 49.5982 193.603 48.2551 194.73 46.514V39.1484Z" fill="#A2A8C9"/>
<path id="Vector_3" d="M171.754 28.1312C171.754 26.6287 172.985 25.4138 174.504 25.4138C175.974 25.4138 177.221 26.6606 177.221 28.1312C177.221 29.6499 176.006 30.8807 174.504 30.8807C172.985 30.8807 171.754 29.6499 171.754 28.1312Z" fill="#A2A8C9"/>
<path id="Vector_4" d="M172.465 33.1646H176.509V52.7173H172.465V33.1646Z" fill="#A2A8C9"/>
<path id="Vector_5" fill-rule="evenodd" clip-rule="evenodd" d="M164.561 25.9148H168.518V52.7174H164.626V50.4966C163.238 52.1138 161.285 53.1825 158.462 53.1825C152.904 53.1825 149.332 48.7522 149.332 42.9526C149.332 37.1934 152.904 32.7229 158.462 32.7229C160.839 32.7229 163.05 33.5859 164.561 35.1271V25.9148ZM164.474 39.1484C163.322 37.4435 161.374 36.3942 159.083 36.3942C155.642 36.3942 153.272 39.3077 153.272 42.9526C153.272 46.5974 155.555 49.5982 159.083 49.5982C161.44 49.5982 163.347 48.255 164.474 46.514V39.1484Z" fill="#A2A8C9"/>
<path id="Vector_6" fill-rule="evenodd" clip-rule="evenodd" d="M137.939 53.2147C139.704 53.2106 141.307 52.8802 142.747 52.2234C144.195 51.5625 145.466 50.6094 146.559 49.364L144.144 46.7904L144.138 46.7962C143.336 47.6484 142.434 48.3014 141.429 48.8292C140.433 49.327 139.297 49.5774 138.019 49.5774C135 49.5774 132.372 47.3024 131.992 44.3075H147.196C147.199 44.2639 147.202 44.2203 147.206 44.1767C147.241 43.7101 147.258 43.2444 147.258 42.7744C147.258 37.1902 143.252 32.658 137.708 32.658C132.124 32.658 127.916 37.0688 127.916 42.9363C127.916 48.921 132.118 53.2087 137.939 53.2147ZM132.088 40.9666H143.125C142.735 38.2471 140.499 36.2187 137.625 36.2187C136.185 36.2187 134.869 36.8422 133.874 37.7699C132.919 38.6602 132.268 39.8235 132.088 40.9666Z" fill="#A2A8C9"/>
<path id="Vector_7" fill-rule="evenodd" clip-rule="evenodd" d="M110.752 50.7575V59.9698H106.794V33.1672H110.687V35.3878C112.075 33.7709 114.028 32.7021 116.851 32.7021C122.409 32.7021 125.981 37.1324 125.981 42.9319C125.981 48.6912 122.409 53.1618 116.851 53.1618C114.473 53.1618 112.263 52.2985 110.752 50.7575ZM110.839 46.7361C111.991 48.4412 113.939 49.4903 116.23 49.4903C119.671 49.4903 122.041 46.5767 122.041 42.9319C122.041 39.287 119.758 36.2865 116.23 36.2865C113.873 36.2865 111.965 37.6296 110.839 39.3707V46.7361Z" fill="#A2A8C9"/>
<path id="Vector_8" d="M92.7625 42.6652L85.8659 33.1658H90.7478L95.3481 39.6456L99.9485 33.1658H104.765L97.8384 42.7066L105.086 52.7178H100.199L95.2964 45.7978L90.394 52.7178H85.4849L92.7625 42.6652Z" fill="#A2A8C9"/>
<path id="Vector_9" d="M72.8373 41.2472H82.9941V37.4107H72.8373V30.4405H83.8733V26.604H68.418V52.7175H83.9531V48.8812H72.8373V41.2472Z" fill="#A2A8C9"/>
</g>
</svg>
