<svg width="130" height="52" viewBox="0 0 130 52" fill="none" xmlns="http://www.w3.org/2000/svg">
<g id="Ford Motor Company svg" clip-path="url(#clip0_422_1183)">
<g id="Group">
<path id="path741" d="M107.965 36.201C107.965 36.4042 108.27 36.6073 108.474 36.7089C108.576 36.7089 108.576 36.8105 108.474 37.0137C107.761 38.5375 107.149 39.3502 106.334 40.5692C105.518 41.7883 104.601 42.7025 103.582 43.5152C101.951 44.8359 99.7088 46.3597 97.8742 45.3438C97.0589 44.9375 96.6512 43.7184 96.7531 42.8041C96.7531 40.1629 97.9762 37.42 100.117 34.7788C102.767 31.528 105.722 29.8011 107.659 30.7153C109.697 31.6296 108.984 33.9661 108.168 35.7947C107.965 35.8962 107.965 36.0994 107.965 36.201ZM129.368 15.6805C129.47 15.4773 129.368 15.2742 129.062 15.2742C127.432 15.2742 125.189 15.2742 123.457 15.2742C123.049 15.2742 122.845 15.3758 122.641 15.6805C122.03 16.8996 114.182 28.582 112.755 30.8169C112.551 31.1217 112.245 31.1217 112.143 30.7153C111.94 29.3947 110.818 27.8709 108.984 27.0582C107.557 26.5503 106.232 26.3471 104.805 26.5503C102.257 26.855 100.015 28.2773 97.9762 29.8011C94.9185 32.1375 92.3704 35.0836 89.007 37.2169C87.1724 38.4359 84.6243 39.4518 82.9936 37.928C81.4647 36.5058 81.6686 33.3566 84.0128 30.9185C84.2166 30.7153 84.5224 30.9185 84.5224 31.1217C84.3186 32.2391 84.6243 33.255 85.4397 34.0677C86.4589 34.982 87.8858 35.0836 89.2108 34.474C90.7397 33.7629 91.555 32.3407 91.7589 30.7153C92.1666 28.2773 90.2301 26.0423 87.8858 25.9408C85.9493 25.8392 84.1147 26.4487 82.2801 27.9725C81.3628 28.6836 80.8532 29.2931 80.0378 30.4106C79.834 30.7153 79.5282 30.7153 79.5282 30.309C79.6301 27.1598 78.3052 25.3312 75.6552 25.3312C73.6167 25.2297 71.4764 26.3471 69.7437 27.7693C67.9091 29.2931 66.2783 31.2233 64.5457 33.0518C64.3418 33.255 64.138 33.255 64.036 32.8486C63.9341 30.7153 63.4245 28.6836 62.5072 27.2614C62.2014 26.7535 61.3861 26.5503 60.8765 26.855C60.5707 27.0582 59.6534 27.4646 58.9399 27.9725C58.6342 28.2773 58.4303 28.6836 58.6342 29.1915C59.5515 32.3407 59.3476 35.8962 58.1245 38.8423C57.0034 41.5851 54.6592 44.1248 52.0092 44.9375C50.2765 45.4454 48.4419 45.2422 47.3208 43.7184C45.792 41.5851 46.4035 37.8264 48.7477 34.7788C50.7861 32.036 53.7419 30.309 56.6976 29.1915C57.0034 29.0899 57.1053 28.7852 57.0034 28.582C56.7996 28.0741 56.5957 27.4646 56.4938 27.1598C56.188 26.4487 55.4746 26.3471 54.5573 26.4487C52.4169 26.6519 50.4804 27.4646 48.5439 28.4804C43.5497 31.1217 41.0016 36.3026 39.8805 39.0454C39.3709 40.3661 38.8612 41.1787 38.3516 41.8899C37.5363 42.9057 36.517 43.82 34.7844 45.3438C34.5805 45.547 34.4786 45.7501 34.5805 46.0549C34.7844 46.4612 35.7017 47.7819 36.0074 47.8835C36.3132 48.0866 36.619 47.7819 36.8228 47.6803C38.0459 46.8676 39.5747 45.4454 40.3901 44.5311C40.6958 44.2263 40.8997 44.3279 41.1035 44.8359C41.817 47.2739 43.5497 49.3057 46.0977 50.1184C50.6842 51.6422 55.4746 49.4073 59.0419 45.547C61.2841 43.1089 62.2014 41.4835 63.0168 40.3661C64.5457 38.5375 67.3995 34.474 70.8648 31.8328C72.1898 30.8169 73.6167 30.1058 74.4321 30.6137C75.0436 31.0201 75.2475 31.9344 74.2283 33.6613C70.661 40.1629 65.463 47.6803 64.5457 49.6104C64.3418 49.9152 64.5457 50.22 64.8514 50.22C66.686 50.22 68.5206 50.22 70.2533 50.22C70.5591 50.22 70.661 50.1184 70.7629 49.9152C73.5148 45.6486 76.0629 41.5851 78.8148 37.42C79.0186 37.2169 79.1205 37.3185 79.1205 37.5216C79.2225 38.5375 79.4263 39.8581 80.0378 40.6708C81.0571 42.2962 82.5859 43.0073 84.2166 43.0073C85.5416 43.0073 86.1532 42.8041 87.5801 42.2962C88.7012 41.8899 89.6185 41.2803 90.332 40.7724C90.7397 40.4676 90.8416 40.9756 90.8416 41.0772C90.2301 44.4295 91.0454 48.493 94.307 50.1184C98.3838 52.0485 102.766 49.3057 105.315 46.766C105.518 46.5628 105.824 46.5628 105.824 47.0708C105.926 47.985 106.334 49.2041 107.149 49.9152C109.29 52.0485 113.57 51.2358 117.953 47.8835C120.705 45.7501 123.661 42.7025 126.209 39.5534C126.311 39.4518 126.412 39.2486 126.209 39.0454C125.801 38.6391 125.189 38.1312 124.782 37.8264C124.578 37.6232 124.374 37.7248 124.17 37.8264C121.52 40.3661 119.074 43.3121 115.609 45.6486C114.488 46.4612 112.551 47.1724 111.736 45.9533C111.43 45.547 111.43 44.9374 111.736 44.1248C112.347 41.5851 128.553 17.1027 129.368 15.6805Z" fill="#A2A8C9"/>
<path id="path745" d="M53.4358 18.626C53.5377 19.0324 53.6397 19.0324 53.8435 19.0324C54.6589 18.8292 55.5762 18.2197 56.0858 17.407C56.5954 16.6959 56.7993 15.68 56.2896 15.2737C55.882 14.8673 55.1685 14.9689 54.6589 15.4769C53.5377 16.2895 53.232 17.6102 53.4358 18.626ZM12.2592 50.1179C6.24582 50.1179 0.94586 46.4608 0.334326 40.0608C0.0285597 36.5053 1.04778 33.3561 2.98431 30.7148C4.81891 28.3784 7.77465 26.4482 10.4246 25.9403C11.24 25.7371 12.3612 25.8387 12.8708 26.4482C13.5842 27.2609 13.3804 28.2768 12.6669 28.5815C10.7304 29.5974 8.38619 31.3244 7.16312 33.6609C6.24582 35.591 6.04197 37.8259 7.46888 40.0608C9.91502 43.7179 16.6419 43.8195 22.8591 38.0291C24.388 36.6069 25.8149 35.2862 27.2418 33.6609C29.9937 30.5117 30.911 29.3942 34.5802 24.3149C34.5802 24.2133 34.6821 24.2133 34.5802 24.1117C34.5802 24.0101 34.4783 24.0101 34.3764 24.0101C31.9302 24.0101 29.7899 24.7212 27.7514 26.245C27.1399 26.6514 26.3245 26.6514 25.9168 26.0419C25.5091 25.4323 25.8149 24.5181 26.5283 24.1117C29.8918 21.7752 33.561 21.3689 37.2302 20.7594C37.2302 20.7594 37.434 20.7594 37.7398 20.4546C39.2686 18.5245 40.3898 16.6959 42.0205 14.7657C43.6513 12.734 45.7917 10.9055 47.4224 9.48325C49.6647 7.5531 51.0916 6.94358 52.6204 6.13089C53.0281 5.92772 52.5185 5.72455 52.4166 5.72455C44.1609 4.20075 35.5994 2.16901 27.4456 5.21661C21.738 7.34993 19.2919 11.8197 20.5149 14.7657C21.3303 16.8991 24.1841 17.2038 26.8341 15.9848C28.9745 14.8673 31.0129 13.242 32.4398 11.007C33.2552 9.78801 34.886 10.7023 33.9687 12.8356C31.5225 18.4229 27.038 22.8927 21.4322 23.0958C16.6419 23.299 13.6861 19.7435 13.6861 15.4769C13.6861 7.04517 23.1649 1.45791 33.0514 0.645216C44.9763 -0.37065 56.2896 2.77853 68.2145 4.30233C77.2856 5.41979 86.0509 5.41979 95.122 3.28647C96.2432 3.08329 96.9566 3.7944 96.8547 4.81027C96.7528 6.33406 95.5297 7.85786 92.574 9.58484C89.1086 11.4134 85.5413 12.0229 81.8721 12.0229C72.6991 12.0229 64.3415 8.46738 55.5762 6.63882C55.5762 7.04517 55.6781 7.45152 55.3723 7.75628C50.582 11.3118 46.1993 14.8673 43.2436 19.9467C43.1417 20.0483 43.1417 20.1498 43.3455 20.1498C45.8936 20.0483 48.1359 19.9467 50.582 19.7435C50.9897 19.7435 50.9897 19.6419 50.9897 19.3371C50.7858 17.6102 51.2955 15.5784 52.8243 14.2578C54.3531 12.8356 56.3916 12.734 57.7166 13.7499C59.2454 14.8673 59.0415 17.0007 58.2262 18.5245C57.4108 20.1498 56.0858 20.9625 54.7608 21.3689C54.7608 21.3689 54.455 21.4705 54.557 21.6736C54.6589 22.08 56.3916 23.0959 56.5954 23.299C56.7993 23.5022 56.6973 23.9085 56.3916 24.2133C56.1877 24.4165 55.882 24.6196 55.5762 24.6196C55.2704 24.6196 55.0666 24.5181 54.6589 24.3149C53.8435 23.9085 52.8243 23.1974 52.2128 22.2832C52.0089 21.9784 51.907 21.9784 51.2955 21.9784C48.7474 22.1816 44.7724 22.4863 42.0205 22.7911C41.409 22.8927 41.3071 22.9943 41.1032 23.1974C36.8225 30.3085 32.1341 37.9275 27.1399 43.1084C21.5342 48.5941 17.0496 50.1179 12.2592 50.1179Z" fill="#A2A8C9"/>
</g>
</g>
<defs>
<clipPath id="clip0_422_1183">
<rect width="129.135" height="50.7933" fill="white" transform="translate(0.232422 0.34082)"/>
</clipPath>
</defs>
</svg>
