<svg width="161" height="79" viewBox="0 0 161 79" fill="none" xmlns="http://www.w3.org/2000/svg">
<g id="Group">
<path id="Vector" d="M106.666 1.53141C104.551 0.826341 101.731 0.72058 99.4743 0.544313C96.9713 0.332792 95.4907 0.72058 93.446 0.826341C90.9077 0.967355 81.6713 10.1333 75.0084 17.7833C75.0084 17.7833 70.1082 13.9759 66.5123 11.8607C62.9165 9.74548 62.0704 9.42819 59.7436 10.9441C57.4169 12.4952 43.9853 18.4883 45.3602 18.7704C46.7351 19.0524 52.6577 19.6165 54.9844 19.2992C57.3111 18.9819 61.1185 16.7962 61.1185 16.7962L67.2526 20.6036C66.7943 20.8856 66.3008 21.1324 65.8425 21.4144C65.5605 21.5907 65.2432 21.7317 64.9612 21.9079C64.3618 22.2605 64.0093 23.036 63.6215 23.6001C63.551 23.7059 62.9165 24.0231 62.8107 24.0937C62.1409 24.5872 61.4358 25.116 61.3653 25.4685C61.2243 26.1736 61.6121 26.4909 62.3171 26.2441C63.7273 25.8211 65.3137 25.4685 65.3137 25.4685L68.4865 26.4556C68.4865 26.4556 71.8356 27.4075 76.4538 27.0549C77.2999 26.9844 86.9241 24.7635 86.9241 24.7635C86.9241 24.7635 92.6351 26.4556 93.305 26.7024C93.9395 26.9492 97.0771 26.4556 98.3462 25.7153C99.6153 24.975 102.4 21.6964 102.436 20.9561C102.471 20.251 95.6317 19.5107 94.7151 19.4402C92.4941 19.2287 88.3695 19.2287 88.3695 19.2287C88.3695 19.2287 92.1768 9.53396 95.0676 6.50215C97.9584 3.47035 111.743 6.57266 115.338 5.55031C119.005 4.56321 111.037 2.9768 106.666 1.53141ZM4.67769 64.5294C5.20649 64.5294 5.59428 64.1064 5.59428 63.6128V51.1683C5.59428 50.6395 6.01732 50.2518 6.51087 50.2518H9.75419C10.283 50.2518 10.6708 50.6748 10.6708 51.1683V63.6128C10.6708 64.1416 11.0938 64.5294 11.5874 64.5294H14.5134C15.0422 64.5294 15.43 64.1064 15.43 63.6128V33.1891C15.43 32.6603 15.007 32.2725 14.5134 32.2725H11.5874C11.0586 32.2725 10.6708 32.6955 10.6708 33.1891V44.4702C10.6708 44.9637 10.2477 45.3868 9.75419 45.3868H6.51087C6.01732 45.3868 5.59428 44.9637 5.59428 44.4702V33.1891C5.59428 32.6603 5.17124 32.2725 4.67769 32.2725H1.7164C1.18759 32.2725 0.799805 32.6955 0.799805 33.1891V63.6128C0.799805 64.1416 1.22285 64.5294 1.7164 64.5294H4.67769ZM26.4291 56.5974C26.4291 58.9946 27.0637 60.158 29.0026 60.158C30.9415 60.158 31.5408 58.9946 31.5408 56.5974V40.2398C31.5408 37.8425 30.9063 36.6791 29.0026 36.6791C27.0637 36.6791 26.4291 37.8425 26.4291 40.2398V56.5974ZM21.6346 40.0987C21.6346 35.551 23.9613 31.8142 29.0026 31.8142C34.0438 31.8142 36.3706 35.5158 36.3706 40.0987V56.7384C36.3706 61.2861 34.0438 65.023 29.0026 65.023C23.9613 65.023 21.6346 61.3214 21.6346 56.7384V40.0987ZM48.9208 59.7349C48.392 59.7349 48.0042 59.3119 48.0042 58.8184V33.1891C48.0042 32.6603 47.5812 32.2725 47.0876 32.2725H44.1616C43.6328 32.2725 43.2098 32.6955 43.2098 33.1891V63.6128C43.2098 64.1416 43.6328 64.5294 44.1616 64.5294H54.6671C55.1959 64.5294 55.5837 64.1064 55.5837 63.6128V60.6515C55.5837 60.1227 55.1607 59.7349 54.6671 59.7349H48.9208ZM71.5888 64.5294C72.1176 64.5294 72.5407 64.1064 72.5407 63.6128V60.6515C72.5407 60.1227 72.1176 59.7349 71.5888 59.7349H65.913C65.4194 59.7349 64.9964 59.3119 64.9964 58.8184V33.1891C64.9964 32.6603 64.5734 32.2725 64.0798 32.2725H61.1185C60.625 32.2725 60.2019 32.6955 60.2019 33.1891V63.6128C60.2019 64.1416 60.625 64.5294 61.1185 64.5294H71.5888ZM81.9533 64.5294C82.4469 64.5294 82.8699 64.1064 82.8699 63.6128V33.1891C82.8699 32.6603 82.4469 32.2725 81.9533 32.2725H78.992C78.4985 32.2725 78.0755 32.6955 78.0755 33.1891V63.6128C78.0755 64.1416 78.4985 64.5294 78.992 64.5294H81.9533ZM89.004 57.4787C89.7091 61.6386 92.0711 64.9877 96.09 64.9877C100.602 64.9877 103.669 62.0264 103.669 56.7031C103.669 47.9603 93.9043 45.3163 93.9043 39.8167C93.9043 37.8073 94.5388 36.5381 96.09 36.4324C97.4296 36.3266 98.8398 37.3137 98.9455 39.2174C98.9455 39.2174 99.1218 40.0635 99.8621 40.0635L102.506 39.711C103 39.6404 103.246 38.9354 103.07 38.4418C103.07 38.4418 102.259 31.7789 96.7598 31.7789C92.0358 31.7789 89.3213 34.6697 89.3213 39.8167C89.3213 49.0884 99.0865 50.7806 99.0865 57.1614C99.0865 59.1004 97.9584 60.1227 96.3015 60.1227C93.7985 60.1227 93.5517 56.4916 93.5517 56.4916C93.4107 55.9981 92.7762 55.3635 92.2474 55.434L89.6033 55.9628C89.6386 56.0333 88.7573 56.0333 89.004 57.4787ZM112.06 63.6128C112.06 64.1416 112.483 64.5294 113.012 64.5294H115.938C116.467 64.5294 116.854 64.1064 116.854 63.6128V38.0188C116.854 37.49 117.277 37.1022 117.771 37.1022H120.556C121.085 37.1022 121.472 36.6791 121.472 36.1503V33.1891C121.472 32.6603 121.049 32.2725 120.556 32.2725H108.323C107.829 32.2725 107.406 32.6955 107.406 33.1891V36.1503C107.406 36.6791 107.829 37.1022 108.323 37.1022H111.108C111.602 37.1022 112.025 37.5252 112.025 38.0188V63.6128H112.06ZM138.747 64.5294C139.24 64.5294 139.663 64.1064 139.663 63.6128V60.6515C139.663 60.1227 139.24 59.7349 138.747 59.7349H132.013C131.484 59.7349 131.097 59.3119 131.097 58.8184V51.2036C131.097 50.6748 131.52 50.287 132.013 50.287H136.349C136.843 50.287 137.266 49.864 137.266 49.3704V46.4091C137.266 45.8803 136.843 45.4925 136.349 45.4925H132.013C131.484 45.4925 131.097 45.0695 131.097 44.5759V38.1245C131.097 37.5957 131.52 37.208 132.013 37.208H138.218C138.747 37.208 139.134 36.7849 139.134 36.2561V33.2948C139.134 32.766 138.711 32.3782 138.218 32.3782H127.219C126.69 32.3782 126.302 32.8013 126.302 33.2948V63.7186C126.302 64.2474 126.725 64.6352 127.219 64.6352H138.747V64.5294ZM150.204 45.8098C150.204 46.3386 150.592 46.7264 151.05 46.7264C151.508 46.7264 152.284 46.6206 152.778 46.4444C152.778 46.4444 155.457 45.5983 155.457 41.7557C155.457 37.913 154.505 36.7849 151.896 36.7849H151.121C150.592 36.7849 150.204 37.208 150.204 37.7015V45.8098ZM150.204 63.6128C150.204 64.1416 149.781 64.5294 149.288 64.5294H146.361C145.833 64.5294 145.445 64.1064 145.445 63.6128V33.1891C145.445 32.6603 145.868 32.2725 146.361 32.2725H151.226C155.809 32.2725 160.287 34.9165 160.287 41.7909C160.287 46.9732 158.524 49.0884 156.902 49.9345L160.71 63.6481C160.851 64.1416 160.533 64.5294 160.04 64.5294H157.008C156.479 64.5294 155.986 64.1416 155.845 63.6128L152.883 52.0497C152.742 51.5561 152.284 51.1683 151.826 51.2036C151.367 51.2388 151.085 51.2388 151.085 51.2388C150.592 51.2741 150.169 51.6971 150.169 52.1907V63.6128H150.204Z" fill="#A2A8C9"/>
<path id="Vector_2" d="M35.8761 71.2635C35.2415 70.77 34.466 70.5584 33.5494 70.5584C32.809 70.5584 32.1392 70.6995 31.5047 71.0167C30.8701 71.334 30.3766 71.7923 30.024 72.3916C29.6715 72.991 29.46 73.7313 29.46 74.5421C29.46 75.6702 29.8125 76.6221 30.5176 77.3977C31.2226 78.138 32.2802 78.5258 33.6551 78.5258C35.6293 78.5258 36.8984 77.6444 37.4625 75.8112L35.9466 75.0709C35.8056 75.7055 35.5588 76.199 35.171 76.5516C34.7832 76.9041 34.3249 77.0804 33.7961 77.0804C33.1616 77.0804 32.6328 76.8336 32.245 76.3753C31.8219 75.917 31.6457 75.2824 31.6457 74.5421C31.6457 73.837 31.8572 73.2025 32.2097 72.6737C32.5975 72.1449 33.1616 71.8981 33.9372 71.8981C34.8537 71.8981 35.4883 72.3916 35.8761 73.3787H37.1805V70.6642H35.8761V71.2635ZM47.4392 77.0804L45.8176 71.9686H46.8752V70.6642H41.7987V71.9686H42.821L41.3051 77.0804H40.3533V78.3848H43.7729V77.0804H42.7505L43.1736 75.7407H45.183L45.5356 77.0804H44.5485V78.3848H48.3911V77.0804H47.4392ZM43.5261 74.6126L44.2312 72.2859L44.8657 74.6126H43.5261ZM58.7909 78.3848V74.6831H57.275V77.0804H54.9835V71.9686H56.1116V70.6642H51.8459V71.9686H52.9388V77.0804H51.8459V78.3848H58.7909ZM66.9697 78.3848V77.0804H65.7711V71.9686H66.9697V70.6642H62.5983V71.9686H63.7616V77.0804H62.5983V78.3848H66.9697ZM75.4305 78.3848V77.0804H74.2319V75.0709H75.9241V73.7665H74.2319V71.9686H76.5586V73.0615H78.0393V70.6642H71.0943V71.9686H72.2225V77.0804H71.0943V78.3848H75.4305ZM81.8114 71.6866C81.0711 72.4621 80.6833 73.414 80.6833 74.5069C80.6833 75.5645 81.0711 76.5163 81.8114 77.2919C82.5517 78.0675 83.6093 78.4905 84.9842 78.4905C86.3239 78.4905 87.3815 78.1027 88.1218 77.3272C88.8974 76.5516 89.2852 75.5997 89.2852 74.5069C89.2852 73.3787 88.8974 72.4621 88.1218 71.6866C87.3462 70.911 86.2886 70.5232 84.949 70.5232C83.6446 70.5232 82.587 70.911 81.8114 71.6866ZM86.5354 72.6384C86.9232 73.0967 87.1347 73.7313 87.1347 74.4716C87.1347 75.3177 86.9232 75.9523 86.5001 76.4106C86.0771 76.8689 85.5835 77.0804 84.9842 77.0804C84.3849 77.0804 83.8914 76.8336 83.4683 76.3753C83.0453 75.917 82.869 75.3177 82.869 74.5421C82.869 73.696 83.0805 73.0262 83.5036 72.5679C83.9266 72.1096 84.4202 71.8981 85.0195 71.8981C85.6188 71.9333 86.1123 72.1801 86.5354 72.6384ZM99.1914 77.0804L97.9223 74.7536C98.8389 74.3306 99.2619 73.696 99.2619 72.8147C99.2619 72.2506 99.0856 71.7571 98.6626 71.2988C98.2748 70.8405 97.6402 70.629 96.7589 70.629H92.1054V71.9333H93.163V77.0451H92.1054V78.3495H96.1596V77.0451H95.2077V74.9652H96.0891L97.8518 78.3495H100.214V77.0451H99.1914V77.0804ZM95.2077 71.9686H96.0891C96.4416 71.9686 96.6884 72.0391 96.8999 72.1801C97.1114 72.3211 97.1819 72.5327 97.1819 72.8499C97.1819 73.4493 96.7589 73.7665 95.9128 73.7665H95.243V71.9686H95.2077ZM107.053 78.3848V77.0804H106.066V72.7089L109.415 78.4553H111.142V71.9686H112.235V70.6642H108.745V71.9686H109.767V75.494L106.947 70.6642H103.669V71.9686H104.691V77.0804H103.669V78.3848H107.053ZM120.414 78.3848V77.0804H119.251V71.9686H120.449V70.6642H116.078V71.9686H117.241V77.0804H116.078V78.3848H120.414ZM131.131 77.0804L129.509 71.9686H130.532V70.6642H125.455V71.9686H126.478L124.962 77.0804H124.01V78.3848H127.429V77.0804H126.407L126.83 75.7407H128.84L129.192 77.0804H128.205V78.3848H132.012V77.0804H131.131ZM127.218 74.6126L127.923 72.2859L128.558 74.6126H127.218Z" fill="#A2A8C9"/>
</g>
</svg>
