<svg width="201" height="48" viewBox="0 0 201 48" fill="none" xmlns="http://www.w3.org/2000/svg">
<g id="MUFG svg" clip-path="url(#clip0_422_1282)">
<g id="g76">
<g id="g82">
<path id="path84" d="M185.343 39.8294C175.925 39.8294 169.541 33.1595 169.541 24.0933V24.0134C169.541 15.3466 176.125 8.27734 185.343 8.27734C190.77 8.27734 194.003 9.71516 197.235 12.471L192.965 17.5033C190.571 15.5862 188.695 14.4679 185.144 14.4679C180.275 14.4679 176.564 18.7414 176.564 24.0134C176.564 29.6449 180.275 33.7586 185.622 33.7586C188.097 33.7586 189.892 33.1995 191.808 31.9614V27.9674H184.864V21.4174H198.193V34.9568C194.96 37.6327 190.85 39.8294 185.343 39.8294ZM151.024 15.0271V21.4174H164.473V27.8875H151.024V39.43H144.64V8.6368H168.264V15.0271H151.024ZM126.443 39.8294C118.342 39.8294 113.473 35.2364 113.473 26.2101V8.67674H119.858V26.0503C119.858 31.1226 122.412 33.6787 126.522 33.6787C130.513 33.6787 133.187 31.2025 133.187 26.3299V8.67674H139.572V26.0503C139.572 35.2364 134.623 39.8294 126.443 39.8294ZM102.06 39.43V19.4204L93.4807 32.4007H93.4009L84.7814 19.5003V39.43H78.3965V8.6368H85.5396L93.4409 21.4973L101.462 8.6368H108.326V39.43H102.06Z" fill="#A2A8C9"/>
</g>
<g id="g86">
<path id="path88" d="M44.484 24.0932C44.484 29.3253 40.2141 33.6387 34.8668 33.6387C29.6392 33.6387 25.4491 29.3652 25.4491 24.0932C25.4491 18.7414 29.6392 14.4678 34.8668 14.4678C40.2141 14.4678 44.484 18.7414 44.484 24.0932ZM34.8668 44.8617C23.5337 44.8617 14.1958 35.5159 14.1958 24.0533C14.1958 12.5108 23.5337 3.16502 34.8668 3.16502C46.3995 3.16502 55.6576 12.5108 55.6576 24.0533C55.6177 35.5159 46.3995 44.8617 34.8668 44.8617ZM44.2845 1.0083C40.9324 1.0083 37.8198 1.68727 34.8668 2.92539C32.1133 1.68727 28.881 1.0083 25.6087 1.0083C12.839 1.0083 2.66309 11.2328 2.66309 24.0932C2.66309 36.7939 12.8789 47.1782 25.6087 47.1782C28.8411 47.1782 32.0734 46.4193 34.8668 45.1812C37.8198 46.4193 40.9723 47.1782 44.2845 47.1782C56.9744 47.1782 67.1503 36.7939 67.1503 24.0932C67.1503 11.2328 56.9744 1.0083 44.2845 1.0083Z" fill="#A2A8C9"/>
</g>
</g>
</g>
<defs>
<clipPath id="clip0_422_1282">
<rect width="199.527" height="47.0885" fill="white" transform="translate(0.660156 0.537109)"/>
</clipPath>
</defs>
</svg>
