<svg width="160" height="35" viewBox="0 0 160 35" fill="none" xmlns="http://www.w3.org/2000/svg">
<g id="NYDIG svg" clip-path="url(#clip0_422_1160)">
<g id="Symbols">
<g id="Footer">
<g id="Group">
<g id="Group_2">
<path id="Rectangle" d="M33.1034 0.951904H0V34.0554H33.1034V0.951904Z" fill="#A2A8C9"/>
<path id="Path" d="M26.1053 30.1145L3.94043 4.89282H6.99724L29.1621 30.1145H26.1053Z" fill="white"/>
<path id="Path_2" d="M53.5959 4.89282H56.9778L70.8594 20.8092V4.89282H75.6647V29.3263H72.2832L58.4009 13.4099V29.3263H53.5957L53.5959 4.89282Z" fill="#A2A8C9"/>
<path id="Path_3" d="M91.7938 18.2612V29.3263H87.1225V18.2612L78.8174 4.89282H84.1463L89.4751 13.4794L94.7697 4.89282H100.098L91.7938 18.2612Z" fill="#A2A8C9"/>
<path id="Shape" d="M110.266 4.8972C111.953 4.86002 113.637 5.05983 115.266 5.49059C116.541 5.851 117.742 6.42969 118.813 7.20011C120.348 8.31389 121.588 9.77364 122.431 11.4568C123.313 13.2134 123.763 15.15 123.743 17.1095C123.763 19.0691 123.314 21.0057 122.431 22.7623C121.588 24.4455 120.347 25.9054 118.813 27.0195C117.742 27.7899 116.541 28.3684 115.266 28.7285C113.637 29.1595 111.953 29.3593 110.266 29.3219H102.463V4.8972H110.266ZM119.088 17.4313C119.095 16.4455 118.93 15.4655 118.599 14.5325C118.293 13.6597 117.833 12.8444 117.239 12.1222C116.539 11.2622 115.638 10.574 114.609 10.1139C113.391 9.60426 112.072 9.35967 110.745 9.39754H107.118V25.4645H110.745C112.072 25.5027 113.391 25.2581 114.609 24.7482C115.638 24.2887 116.539 23.6006 117.239 22.7406C117.833 22.0183 118.293 21.203 118.599 20.3303C118.93 19.3972 119.095 18.4172 119.088 17.4313Z" fill="#A2A8C9"/>
<path id="Path_4" d="M127.685 4.89282H132.414V29.3263H127.685V4.89282Z" fill="#A2A8C9"/>
<path id="Path_5" d="M149.44 9.09718C148.308 9.08643 147.187 9.31308 146.151 9.76208C145.164 10.1914 144.271 10.8039 143.52 11.566C142.767 12.3325 142.175 13.237 141.777 14.2281C141.357 15.2699 141.146 16.382 141.155 17.5029C141.144 18.6443 141.368 19.776 141.813 20.8302C142.646 22.8365 144.259 24.4316 146.293 25.2609C148.356 26.0802 150.653 26.1238 152.746 25.3834C153.631 25.0551 154.458 24.5944 155.2 24.0174V18.729H148.8V14.5256H160V25.4182C158.834 26.8599 157.351 28.0217 155.662 28.8154C153.753 29.7083 151.659 30.1521 149.546 30.112C147.72 30.1335 145.908 29.8002 144.213 29.1312C142.661 28.5162 141.247 27.6055 140.053 26.4512C138.883 25.3072 137.958 23.9438 137.332 22.4415C136.676 20.8759 136.343 19.1968 136.355 17.5029C136.343 15.8107 136.669 14.1327 137.315 12.5644C137.927 11.0639 138.84 9.70026 139.999 8.55446C141.185 7.39853 142.593 6.48744 144.141 5.87464C145.836 5.20544 147.649 4.87214 149.475 4.89382C151.216 4.8735 152.945 5.19512 154.559 5.83991C156.049 6.43776 157.412 7.30479 158.578 8.39627L155.484 11.6192C154.71 10.8624 153.808 10.2459 152.817 9.79792C151.757 9.32245 150.604 9.08318 149.44 9.09718Z" fill="#A2A8C9"/>
</g>
</g>
</g>
</g>
</g>
<defs>
<clipPath id="clip0_422_1160">
<rect width="160" height="33.1034" fill="white" transform="translate(0 0.951904)"/>
</clipPath>
</defs>
</svg>
