<svg width="162" height="31" viewBox="0 0 162 31" fill="none" xmlns="http://www.w3.org/2000/svg">
<g id="Patagonia svg" clip-path="url(#clip0_422_1212)">
<g id="Group">
<g id="Group_2">
<g id="Group_3">
<path id="Vector" d="M162.001 4.61915C162.001 5.94734 160.944 7.00989 159.584 7.00989C158.225 7.00989 157.168 5.94734 157.168 4.61915C157.168 3.32891 158.225 2.26636 159.584 2.26636C160.981 2.26636 162.001 3.32891 162.001 4.61915ZM157.81 4.61915C157.81 5.6817 158.565 6.51656 159.622 6.51656C160.642 6.51656 161.397 5.6817 161.397 4.6571C161.397 3.59455 160.642 2.75968 159.584 2.75968C158.565 2.75968 157.81 3.59455 157.81 4.61915ZM159.245 5.87144H158.716V3.51865C158.943 3.4807 159.245 3.44275 159.622 3.44275C160.075 3.44275 160.264 3.51865 160.453 3.6325C160.566 3.74634 160.679 3.93608 160.679 4.16377C160.679 4.42941 160.49 4.61915 160.188 4.69505V4.733C160.415 4.80889 160.528 4.99863 160.604 5.30222C160.679 5.64375 160.717 5.79555 160.793 5.90939H160.188C160.113 5.83349 160.075 5.60581 160 5.34017C159.962 5.07453 159.811 4.96068 159.509 4.96068H159.245V5.87144ZM159.245 4.54325H159.509C159.811 4.54325 160.037 4.42941 160.037 4.20172C160.037 3.97403 159.886 3.86018 159.547 3.86018C159.396 3.86018 159.32 3.86018 159.245 3.89813V4.54325Z" fill="#A2A8C9"/>
</g>
</g>
<g id="Group_4">
<path id="Vector_2" d="M61.682 18.3562C61.682 19.6844 61.3422 20.9746 59.6054 20.9746C57.8686 20.9746 57.4156 19.3428 57.4156 17.9008C57.4156 16.1552 58.737 14.827 60.5871 14.827H61.4554C61.682 14.827 61.682 15.0547 61.682 15.0547V18.3562ZM69.3087 21.9613H68.5536C68.327 21.9613 68.4403 21.6197 68.4403 21.6197V12.0188C68.4403 7.76861 65.7219 5.98504 61.5687 5.98504C60.1717 5.98504 58.737 6.21273 57.34 6.74401C57.34 6.74401 57.0002 6.9717 57.2268 6.51632C57.34 6.28863 57.34 6.06094 57.34 6.06094C57.34 6.06094 57.4533 5.83325 57.2268 5.7194C57.0002 5.7194 55.6033 5.26402 55.3767 5.18813C55.1502 5.07428 55.1502 5.30197 55.1502 5.30197C55.1502 5.30197 53.0736 10.5388 52.9603 10.7665C52.8471 10.9942 52.9603 10.9942 52.9603 10.9942C52.9603 10.9942 54.8104 11.6393 55.0369 11.6393C55.1502 11.7532 55.2635 11.6393 55.2635 11.6393C56.2451 10.425 57.2268 9.66602 59.3034 9.66602C60.9269 9.66602 61.682 10.3111 61.682 11.7532V12.2845C61.682 12.5121 61.5687 12.5121 61.5687 12.5121L56.6604 12.626C53.3757 12.626 50.6572 15.0167 50.6572 19.191C50.6572 22.5684 53.1491 24.6556 56.5472 24.6556C58.5105 24.6556 60.0207 23.7828 61.5687 22.6823C61.5687 22.6823 61.7952 22.2269 61.9085 22.6823C61.9085 23.0238 62.0218 23.4412 62.1351 23.8966C62.2483 24.1243 62.3616 24.1243 62.3616 24.1243H69.3465C69.3465 24.1243 69.6863 24.2382 69.6863 23.8966V22.151C69.6107 22.189 69.6107 21.9613 69.3087 21.9613Z" fill="#A2A8C9"/>
<path id="Vector_3" d="M49.8268 20.8607C49.8268 20.6331 49.6003 20.8607 49.6003 20.8607C49.1472 21.0884 49.0717 21.0884 48.5053 21.0884C47.9768 21.0884 46.9951 20.8607 46.9951 19.6844V9.51421C46.9951 9.51421 46.9951 9.40037 47.2216 9.40037H49.6003C49.6003 9.40037 49.7135 9.40037 49.8268 9.17268C49.8268 8.94499 50.2799 6.78194 50.2799 6.78194C50.2799 6.78194 50.3931 6.55425 50.1666 6.55425H47.2216C47.2216 6.55425 46.9951 6.66809 46.9951 6.4404V5.11222C46.9951 4.35325 47.1084 3.36659 47.2216 2.49378C47.2216 2.49378 47.3349 2.37994 47.1084 2.2661C46.8818 2.2661 45.4849 1.92456 45.2583 1.92456C45.0318 1.92456 45.0318 2.03841 45.0318 2.03841C43.8236 4.65684 41.445 6.5163 38.6133 7.27527C38.6133 7.27527 38.5 7.38911 38.5 7.50296V9.13473C38.5 9.36242 38.6133 9.36242 38.6133 9.36242H40.1235C40.35 9.36242 40.35 9.47627 40.35 9.47627V19.9879C40.35 23.0617 41.5582 24.6935 44.9185 24.6935C47.9768 24.6935 48.1655 24.5797 50.4687 22.9479C50.4687 22.9479 50.6952 22.8341 50.5819 22.7202C50.4687 22.5305 49.9023 21.0884 49.8268 20.8607Z" fill="#A2A8C9"/>
<path id="Vector_4" d="M31.2888 15.0926V18.3562C31.2888 19.6844 30.949 20.9746 29.3255 20.9746C27.4754 20.9746 27.0223 19.3428 27.0223 17.9008C27.0223 16.1552 28.4193 14.827 30.1938 14.827H31.1755C31.402 14.8649 31.2888 15.0926 31.2888 15.0926ZM39.0288 21.9613H38.1604C38.0471 21.9613 38.0471 21.6197 38.0471 21.6197V12.0188C38.0471 7.76861 35.3287 5.98504 31.1755 5.98504C29.7785 5.98504 28.3438 6.21273 26.9468 6.74401C26.9468 6.74401 26.7203 6.9717 26.8336 6.51632C26.9468 6.28863 27.0601 6.06094 27.0601 6.06094C27.0601 6.06094 27.1734 5.83325 26.9468 5.7194C26.607 5.7194 25.3233 5.26402 24.9835 5.18813C24.8702 5.07428 24.8702 5.30197 24.8702 5.30197C24.8702 5.30197 22.6804 10.5388 22.5671 10.7665C22.4539 10.9942 22.6804 10.9942 22.6804 10.9942C22.6804 10.9942 24.4172 11.6393 24.6437 11.7532C24.8702 11.7532 24.8702 11.6393 24.8702 11.6393C25.8519 10.425 26.8336 9.66602 28.9101 9.66602C30.5336 9.66602 31.2888 10.3111 31.2888 11.7532V12.2845V12.5121L26.305 12.7778C23.0202 12.7778 20.415 15.0926 20.415 19.229C20.415 22.6064 22.9069 24.6935 26.1917 24.6935C28.155 24.6935 29.7785 23.8207 31.2133 22.7202C31.2133 22.7202 31.4398 22.2648 31.5531 22.7202C31.5531 23.0618 31.7796 23.4792 31.8929 23.9346C31.8929 24.1623 32.0061 24.1623 32.0061 24.1623H38.9532C38.9532 24.1623 39.293 24.2761 39.293 23.9346V22.189C39.2553 22.189 39.2553 21.9613 39.0288 21.9613Z" fill="#A2A8C9"/>
<path id="Vector_5" d="M134.702 5.98509C136.553 5.98509 139.498 5.11228 139.498 2.91128C139.498 1.05181 137.761 0.596436 136.213 0.596436C134.589 0.596436 132.173 1.92463 132.173 3.67025C132.211 5.22612 133.192 5.98509 134.702 5.98509Z" fill="#A2A8C9"/>
<path id="Vector_6" d="M75.7275 10.6908C75.7275 8.94517 76.2561 8.30005 77.5775 8.30005C80.2959 8.30005 81.5041 13.6508 81.5041 15.6241C81.5041 17.3697 80.9756 18.0148 79.5408 18.0148C76.7846 18.0148 75.7275 12.6641 75.7275 10.6908ZM78.5592 25.0352C78.6724 24.9214 78.7857 24.9214 78.7857 24.9214C79.9939 25.6804 80.9756 26.2496 80.9756 27.8814C80.9756 28.7542 80.447 29.2095 79.5786 29.2095C78.4837 29.2095 78.0683 28.2229 78.0683 27.3501C77.9928 26.5532 78.2194 25.3768 78.5592 25.0352ZM87.4696 13.1195C87.4696 8.94517 83.996 7.88262 83.996 7.08571C83.996 6.63033 84.2226 6.32674 84.6379 6.32674C85.393 6.21289 85.5063 6.32674 85.8461 6.55443C85.8461 6.55443 85.9594 6.78212 86.0726 6.44058C86.0726 6.32674 86.7145 3.70831 86.8277 3.59446C86.8277 3.25293 86.6012 3.36677 86.6012 3.36677C86.2614 3.25293 85.8461 3.25293 85.393 3.25293C83.4297 3.25293 82.7878 3.78421 82.3348 5.1124C82.3348 5.1124 81.995 5.98521 81.995 6.32674C81.8817 6.55443 81.7684 6.44058 81.7684 6.44058C80.7868 6.32674 79.6919 5.98521 77.8418 5.98521C73.8019 5.98521 69.5732 8.30005 69.5732 13.4231C69.5732 17.0282 72.6315 19.1153 75.652 19.6466C75.652 19.6466 76.1805 19.7604 75.652 19.8743C74.7836 20.2158 72.8203 21.3163 70.6304 21.6199C70.6304 21.6199 70.4039 21.7337 70.5171 21.9614C70.6304 22.0753 71.159 23.5932 71.2723 23.8209C71.3855 24.0486 71.6121 24.0486 71.6121 24.0486C72.5937 23.8209 75.5387 24.0486 76.0673 24.1624C76.5203 24.1624 76.0673 24.2763 76.0673 24.2763C74.557 24.504 72.707 25.6804 72.707 27.3501C72.707 29.627 74.8213 30.5757 77.3132 30.8413H80.749C83.3164 30.4998 86.8655 29.2475 86.8655 26.0219C86.8655 22.1891 80.7868 21.4302 77.8418 21.0886C77.3887 21.0886 77.8418 20.9748 77.8418 20.9748C82.3725 19.8743 87.4696 18.6979 87.4696 13.1195Z" fill="#A2A8C9"/>
<path id="Vector_7" d="M10.5229 21.9611C8.78611 21.9611 8.21976 20.6329 8.21976 19.115V10.273C8.21976 10.0453 8.4463 9.93148 8.4463 9.93148L9.31469 9.81764C10.4096 9.81764 13.6566 10.1592 13.6566 16.6104C13.6566 20.6708 12.675 21.9611 10.5229 21.9611ZM12.7882 5.98486C11.1647 5.98486 9.95654 6.62998 8.33303 7.61664C8.33303 7.61664 8.21976 7.73048 8.21976 7.50279V6.1746C8.21976 5.94692 7.99323 6.06076 7.99323 6.06076L0.40427 8.07202C0.40427 8.07202 0.177734 8.07202 0.177734 8.29971V8.33766V8.3756V8.41355V8.4515V8.48945V8.5274V8.56535V8.60329V8.64124V8.67919V8.71714V8.75509V8.79304V8.83098V8.86893V8.90688V8.94483V8.98278V9.02073V9.05867V9.09662V9.13457V9.17252V9.21047V9.24841V9.28636V9.32431V9.36226V9.40021V9.43816V9.4761V9.51405V9.552V9.58995V9.6279V9.66585V9.70379V9.74174V9.77969V9.81764V9.85559V9.89353V9.93148V9.96943V10.0074V10.0453V10.0833C0.177734 10.311 0.40427 10.311 0.40427 10.311L1.27266 10.0833C1.27266 10.0833 1.49919 9.96943 1.49919 10.1971V27.3877C1.49919 27.3877 1.49919 27.6154 1.27266 27.6154H0.40427C0.40427 27.6154 0.177734 27.6154 0.177734 27.8431V27.881V27.919V27.9569V27.9949V28.0328V27.9569V27.9949V28.0328V28.0708V28.1087V28.1467V28.1846V28.2225V28.2605V28.2984V28.3364V28.3743V28.4123V28.3364V28.3743V28.4123V28.4502V28.4882V28.5261V28.5641V28.602V28.64V28.6779V28.7159V28.7538V28.7918V28.8297V28.8677V28.9056V28.9436V28.9815V29.0195V29.0574V29.0954V29.1333V29.1713V29.2092V29.2472V29.2851V29.323V29.361V29.3989V29.4369V29.4748V29.5128V29.5507V29.5887V29.6266C0.177734 29.8543 0.517538 29.8543 0.517538 29.8543H10.4096C10.4096 29.8543 10.6362 29.7405 10.6362 29.6266V27.881C10.6362 27.6533 10.4096 27.6533 10.4096 27.6533H8.4463C8.21976 27.6533 8.21976 27.4256 8.21976 27.4256V24.1621C8.21976 24.0482 8.33303 24.0482 8.33303 24.0482C9.31469 24.5795 10.7117 24.6934 11.8066 24.6934C17.2435 24.6934 20.415 19.6462 20.415 14.6371C20.415 9.51405 17.0547 5.98486 12.7882 5.98486Z" fill="#A2A8C9"/>
<path id="Vector_8" d="M129.719 21.961H128.737C128.51 21.961 128.624 21.8471 128.624 21.8471V11.1457C128.624 9.17241 127.982 6.02271 123.3 6.02271C120.808 6.02271 118.958 7.42679 117.108 8.86883C117.108 8.86883 116.995 9.09651 116.995 8.75498V6.25039C116.995 6.02271 116.768 6.13655 116.768 6.13655L109.028 8.2237C109.028 8.2237 108.915 8.10986 108.915 8.33755V10.197C108.915 10.4247 109.028 10.3109 109.028 10.3109C109.028 10.3109 109.67 10.0832 110.01 9.96933C110.236 9.96933 110.123 10.197 110.123 10.197V21.8851C110.123 21.8851 110.236 21.9989 110.01 21.9989H109.028C109.028 21.9989 108.915 21.9989 108.915 22.2266V23.9722C108.915 24.3138 109.028 24.1999 109.028 24.1999H118.165C118.165 24.1999 118.279 24.1999 118.279 24.0861V22.2266C118.279 21.9989 118.165 21.9989 118.165 21.9989H116.957C116.844 21.9989 116.844 21.8851 116.844 21.8851V11.9047C116.844 11.7908 116.957 11.677 116.957 11.677C117.825 10.918 118.694 10.3488 119.902 10.3488C120.884 10.3488 121.865 10.8042 121.865 11.8667V21.8092C121.865 21.8092 121.865 21.923 121.752 21.923H120.657C120.657 21.923 120.431 21.923 120.431 22.1507V24.0102C120.431 24.124 120.544 24.124 120.544 24.124H129.681C129.681 24.124 129.794 24.2379 129.794 23.8963V22.1507C129.794 21.961 129.719 21.961 129.719 21.961Z" fill="#A2A8C9"/>
<path id="Vector_9" d="M151.353 18.3562C151.353 19.6844 151.013 20.9746 149.276 20.9746C147.54 20.9746 147.086 19.3428 147.086 17.9008C147.086 16.1552 148.408 14.827 150.258 14.827H151.126C151.353 14.827 151.353 15.0547 151.353 15.0547V18.3562ZM159.093 21.9613H158.224C158.111 21.9613 158.111 21.6197 158.111 21.6197V12.0188C158.111 7.76861 155.393 5.98504 151.24 5.98504C149.843 5.98504 148.408 6.21273 147.011 6.74401C147.011 6.74401 146.671 6.9717 146.898 6.51632C147.011 6.28863 147.124 6.06094 147.124 6.06094C147.124 6.06094 147.124 5.83325 146.898 5.7194C146.671 5.7194 145.274 5.26402 145.048 5.18813C144.821 5.07428 144.821 5.30197 144.821 5.30197C144.821 5.30197 142.745 10.5388 142.631 10.7665C142.518 10.9942 142.745 10.9942 142.745 10.9942C142.745 10.9942 144.481 11.6393 144.708 11.6393C144.821 11.7532 144.934 11.6393 144.934 11.6393C145.916 10.425 146.898 9.66602 148.974 9.66602C150.598 9.66602 151.353 10.3111 151.353 11.7532V12.2845C151.353 12.5121 151.24 12.5121 151.24 12.5121L146.331 12.626C143.047 12.626 140.328 15.0167 140.328 19.191C140.328 22.5684 142.82 24.6556 146.218 24.6556C148.181 24.6556 149.692 23.7828 151.24 22.6823C151.24 22.6823 151.466 22.2269 151.579 22.6823C151.579 23.0238 151.693 23.4412 151.806 23.8966C151.919 24.1243 152.032 24.1243 152.032 24.1243H159.017C159.017 24.1243 159.357 24.2382 159.357 23.8966V22.151C159.319 22.189 159.319 21.9613 159.093 21.9613Z" fill="#A2A8C9"/>
<path id="Vector_10" d="M99.7779 21.9611C96.0779 21.9611 94.9829 15.396 94.9829 12.7776C94.9829 11.4494 94.9829 8.71714 97.3616 8.71714C101.175 8.71714 102.27 15.2822 102.27 17.9006C102.27 19.8739 101.741 21.9611 99.7779 21.9611ZM98.5698 5.98486C92.6798 5.98486 88.2246 9.58995 88.2246 15.2822C88.2246 21.2021 92.6798 24.6934 98.5698 24.6934C104.46 24.6934 109.028 21.2021 109.028 15.2822C109.028 9.58995 104.46 5.98486 98.5698 5.98486Z" fill="#A2A8C9"/>
<path id="Vector_11" d="M140.366 22.1891C140.366 21.9614 140.14 21.9614 140.14 21.9614H139.271C139.045 21.9614 139.158 21.8476 139.158 21.8476V6.21286C139.158 5.98517 138.931 6.09902 138.931 6.09902L131.191 8.18617C131.191 8.18617 131.078 8.18617 131.078 8.41386V10.1595C131.078 10.3872 131.305 10.2733 131.305 10.2733C131.305 10.2733 131.833 10.1595 132.286 10.0456C132.513 10.0456 132.4 10.2733 132.4 10.3872V21.8855C132.4 21.8855 132.513 21.9993 132.286 21.9993H131.191C131.191 21.9993 130.965 21.9993 130.965 22.227V24.0865C130.965 24.3142 131.191 24.2003 131.191 24.2003H140.253C140.479 24.2003 140.366 23.9727 140.366 23.9727V22.1891Z" fill="#A2A8C9"/>
</g>
</g>
</g>
<defs>
<clipPath id="clip0_422_1212">
<rect width="161.822" height="30.2068" fill="white" transform="translate(0.177734 0.634033)"/>
</clipPath>
</defs>
</svg>
