<svg width="161" height="26" viewBox="0 0 161 26" fill="none" xmlns="http://www.w3.org/2000/svg">
<g id="Group">
<path id="Vector" d="M4.95071 24.1858H0.799805V0.584929H6.25527C12.1851 0.584929 15.2687 4.97302 15.2687 9.36112C15.2687 13.7492 12.0665 18.1373 6.84826 18.1373H4.95071V24.1858ZM4.95071 14.2236H6.61106C9.57599 14.2236 10.9992 11.7331 10.9992 9.36112C10.9992 6.98918 9.4574 4.49864 6.13668 4.49864H4.95071V14.2236ZM26.7726 24.5416C21.3171 24.5416 17.6406 20.7464 17.6406 15.0538V0.584929H21.9101V14.9352C21.9101 18.6117 23.6891 20.5093 26.8912 20.5093C30.9235 20.5093 31.7537 17.4257 31.7537 14.9352V0.584929H36.0232V15.0538C35.9046 20.7464 32.228 24.5416 26.7726 24.5416ZM50.2548 24.1858H38.7509V0.584929H43.0204V20.1535H50.2548V24.1858ZM63.4191 24.1858H51.9152V0.584929H56.1847V20.1535H63.4191V24.1858ZM95.0845 24.1858H87.8501V0.584929H92.2382C94.7287 0.584929 96.7449 0.703526 98.1681 1.6523C100.303 2.83828 101.37 4.85443 101.37 7.34497C101.37 9.00533 100.659 10.4285 99.4726 11.4959C101.726 12.6818 102.912 14.5794 102.912 17.3071C103.031 21.1022 99.4726 24.1858 95.0845 24.1858ZM92.001 20.1535H94.2544C98.6425 20.1535 98.6425 17.7815 98.6425 17.0699C98.6425 16.3584 98.6425 13.9864 94.373 13.9864H92.001V20.1535ZM92.001 10.1913H93.6614C95.2031 10.1913 97.1007 9.71691 97.1007 7.34497C97.1007 6.159 96.7449 4.49864 93.4242 4.49864H91.8824L92.001 10.1913ZM119.634 24.1858H105.165V0.584929H119.634V4.61723H109.435V10.1913H119.041V14.105H109.435V20.1535H119.634V24.1858ZM143.591 24.1858H138.728L136.356 18.0187H127.699L125.327 24.1858H120.82L130.426 0.703526H133.747L143.591 24.1858ZM129.122 14.105H134.815L131.968 6.98918L129.122 14.105ZM153.316 20.1535C153.909 21.458 154.62 22.7626 155.45 24.0672H160.669C159.483 22.2882 158.297 20.0349 157.348 18.1373L155.569 14.5794C156.636 13.9864 157.585 13.1562 158.297 12.0889C159.008 10.9029 159.364 9.59831 159.364 8.05655C159.364 3.43126 155.925 0.703526 150.351 0.703526H144.658V24.1858H148.809V16.2398C148.809 16.2398 149.876 16.2398 151.3 16.0026C151.774 16.9513 152.486 18.4931 153.316 20.1535ZM148.809 11.9703V4.61723H150.114C153.434 4.61723 155.095 5.8032 155.095 8.17515C155.095 11.3773 152.486 12.0889 150.232 12.0889H148.809V11.9703ZM81.2087 18.7303C81.2087 17.9001 81.3273 17.1885 81.5645 16.4769C82.0388 15.1724 82.7504 14.2236 83.6992 14.105H83.8178V10.1913C80.8529 10.1913 78.4809 12.2075 77.7694 14.9352L71.6023 8.17515C71.0093 7.58216 70.7721 6.98918 70.7721 6.39619C70.7721 5.8032 71.0093 5.21022 71.4837 4.73583C71.9581 4.26144 72.5511 4.02425 73.1441 4.02425C73.7371 4.02425 74.33 4.26144 74.8044 4.73583C75.0416 4.97302 75.1602 5.21022 75.2788 5.44741L78.8367 3.66846C78.4809 3.07547 78.1252 2.48248 77.6508 1.8895C76.4648 0.703526 74.8044 -0.00805664 73.1441 -0.00805664C71.4837 -0.00805664 69.9419 0.584929 68.6374 1.8895C67.4514 3.07547 66.7398 4.73583 66.7398 6.39619C66.7398 7.93795 67.3328 9.59831 68.5188 10.7843C66.384 12.0889 64.8423 14.4608 64.8423 17.1885C64.8423 21.458 68.2816 25.0159 72.6697 25.0159C75.1602 25.0159 77.4136 23.9486 78.9553 22.2882L80.6157 24.0672H86.1898L81.2087 18.7303ZM72.7883 21.1022C70.6535 21.1022 68.9932 19.3233 68.9932 17.1885C68.9932 15.6468 70.0605 14.3422 71.4837 13.8678L76.4648 19.3233C75.516 20.3907 74.2114 21.1022 72.7883 21.1022Z" fill="#A2A8C9"/>
</g>
</svg>
