<svg width="164" height="78" viewBox="0 0 164 78" fill="none" xmlns="http://www.w3.org/2000/svg">
<g id="Stripe svg">
<g id="Group">
<path id="Vector" fill-rule="evenodd" clip-rule="evenodd" d="M144.47 39.8317C144.47 30.8948 140.153 23.843 131.901 23.843C123.614 23.843 118.6 30.8948 118.6 39.7619C118.6 50.2698 124.519 55.5761 133.015 55.5761C137.158 55.5761 140.292 54.6335 142.66 53.307V46.325C140.292 47.5119 137.576 48.245 134.129 48.245C130.751 48.245 127.757 47.0581 127.374 42.9387H144.401C144.401 42.4849 144.47 40.6696 144.47 39.8317ZM127.27 36.5153C127.27 32.5705 129.672 30.9297 131.866 30.9297C133.99 30.9297 136.253 32.5705 136.253 36.5153H127.27Z" fill="#A2A8C9"/>
<path id="Vector_2" fill-rule="evenodd" clip-rule="evenodd" d="M105.16 23.843C101.748 23.843 99.5542 25.4489 98.3355 26.566L97.8829 24.4016H90.2227V65.1065L98.9274 63.2563L98.9622 53.3768C100.216 54.2844 102.061 55.5761 105.125 55.5761C111.358 55.5761 117.033 50.5491 117.033 39.4826C116.999 29.3588 111.253 23.843 105.16 23.843ZM103.071 47.8959C101.017 47.8959 99.7979 47.1628 98.9622 46.2552L98.9274 33.3036C99.8327 32.2912 101.086 31.593 103.071 31.593C106.239 31.593 108.433 35.1538 108.433 39.727C108.433 44.4049 106.274 47.8959 103.071 47.8959Z" fill="#A2A8C9"/>
<path id="Vector_3" fill-rule="evenodd" clip-rule="evenodd" d="M78.2441 21.7831L86.9837 19.898V12.8113L78.2441 14.6615V21.7831Z" fill="#A2A8C9"/>
<path id="Vector_4" d="M86.9837 24.4363H78.2441V54.9824H86.9837V24.4363Z" fill="#A2A8C9"/>
<path id="Vector_5" fill-rule="evenodd" clip-rule="evenodd" d="M68.8788 27.0199L68.3217 24.4365H60.8008V54.9827H69.5056V34.2811C71.5599 31.5931 75.0418 32.0818 76.1212 32.4658V24.4365C75.007 24.0176 70.9331 23.2496 68.8788 27.0199Z" fill="#A2A8C9"/>
<path id="Vector_6" fill-rule="evenodd" clip-rule="evenodd" d="M51.4692 16.8608L42.9733 18.6762L42.9385 46.639C42.9385 51.8056 46.8034 55.6108 51.9566 55.6108C54.8118 55.6108 56.9009 55.0872 58.05 54.4588V47.3721C56.9358 47.8259 51.4343 49.4318 51.4343 44.2651V31.8721H58.05V24.4363H51.4343L51.4692 16.8608Z" fill="#A2A8C9"/>
<path id="Vector_7" fill-rule="evenodd" clip-rule="evenodd" d="M27.9313 33.3036C27.9313 31.9421 29.0455 31.4185 30.8909 31.4185C33.5372 31.4185 36.8798 32.2214 39.5261 33.6527V25.4489C36.6361 24.2968 33.7809 23.843 30.8909 23.843C23.8227 23.843 19.1221 27.5435 19.1221 33.7225C19.1221 43.3576 32.3533 41.8216 32.3533 45.9759C32.3533 47.5817 30.9606 48.1054 29.0107 48.1054C26.1207 48.1054 22.4299 46.9185 19.5051 45.3126V53.6211C22.7433 55.0175 26.0163 55.611 29.0107 55.611C36.2531 55.611 41.2322 52.0153 41.2322 45.7664C41.1974 35.3633 27.9313 37.2135 27.9313 33.3036Z" fill="#A2A8C9"/>
</g>
</g>
</svg>
