<svg width="190" height="48" viewBox="0 0 190 48" fill="none" xmlns="http://www.w3.org/2000/svg">
<g id="trivago svg" clip-path="url(#clip0_422_1196)">
<g id="Group">
<g id="Group_2">
<path id="Vector" d="M101.111 15.29H108.138L113.408 29.6733H113.561L118.449 15.29H125.018L116.693 36.3702H109.819L101.111 15.29Z" fill="#A2A8C9"/>
<path id="Vector_2" d="M75.6778 20.4648H69.2619V27.5423C69.2619 28.1511 69.3383 28.6077 69.4147 29.1404C69.4911 29.597 69.6438 30.0537 69.873 30.3581C70.1021 30.6625 70.484 30.9669 70.9423 31.1191C71.4006 31.2713 72.0116 31.4235 72.7754 31.4235C73.1573 31.4235 73.6919 31.4235 74.303 31.3474C74.914 31.2713 75.3723 31.1191 75.7542 30.8147V36.2179C74.914 36.4462 74.1502 36.6745 73.2337 36.7506C72.3935 36.8267 71.5533 36.9028 70.7131 36.9028C69.4911 36.9028 68.4218 36.8267 67.3525 36.5223C66.3595 36.294 65.443 35.9135 64.6792 35.4569C63.9154 34.9242 63.3044 34.3154 62.8461 33.4782C62.3878 32.6411 62.1587 31.7279 62.1587 30.5103V20.4648H57.6523V15.2899H62.1587V9.04956H69.2619V15.2899H75.6778V20.4648Z" fill="#A2A8C9"/>
<path id="Vector_3" d="M77.4346 15.2899H84.0032V18.7144H84.0795C84.7669 17.3446 85.6071 16.4314 86.5237 15.8226C87.4402 15.1377 88.6623 14.8333 90.1135 14.8333C90.4954 14.8333 90.8773 14.8333 91.2592 14.9094C91.6411 14.9094 91.9466 14.9855 92.3285 15.0616V20.9975C91.7938 20.8453 91.4119 20.7692 90.9536 20.6931C90.4954 20.617 90.0371 20.617 89.5788 20.617C88.3568 20.617 87.3638 20.7692 86.6 21.1497C85.9126 21.5302 85.3016 21.9868 84.9197 22.5956C84.5378 23.2044 84.3087 23.9655 84.1559 24.8026C84.0032 25.6397 84.0032 26.629 84.0032 27.6184V36.3701H77.4346V15.2899Z" fill="#A2A8C9"/>
<path id="Vector_4" d="M93.8553 15.2899H100.271V36.3701H93.8553V15.2899ZM93.5498 9.81057C93.5498 8.89735 93.8553 8.06023 94.5427 7.37531C95.2301 6.69039 95.9939 6.38599 96.9869 6.38599C97.9034 6.38599 98.7436 6.69039 99.431 7.37531C100.118 8.06023 100.424 8.82124 100.424 9.81057C100.424 10.7238 100.118 11.5609 99.431 12.2458C98.7436 12.9307 97.9798 13.2351 96.9869 13.2351C96.0703 13.2351 95.2301 12.9307 94.5427 12.2458C93.9317 11.5609 93.5498 10.7238 93.5498 9.81057Z" fill="#A2A8C9"/>
<path id="Vector_5" d="M136.017 27.2378C135.559 27.2378 134.948 27.2378 134.184 27.2378C133.42 27.3139 132.733 27.39 132.045 27.6184C131.358 27.8467 130.823 28.075 130.289 28.5316C129.83 28.9121 129.601 29.5209 129.601 30.2058C129.601 30.9668 129.907 31.5756 130.594 31.9562C131.282 32.3367 131.969 32.4889 132.656 32.4889C133.267 32.4889 133.878 32.4128 134.489 32.2606C135.1 32.1084 135.635 31.8801 136.093 31.4995C136.552 31.1951 136.934 30.8146 137.239 30.2819C137.545 29.8253 137.697 29.2165 137.697 28.5316V27.2378H136.017ZM137.621 33.7826H137.468C136.781 34.848 135.788 35.6851 134.566 36.1418C133.344 36.5984 132.122 36.8267 130.747 36.8267C129.754 36.8267 128.837 36.6745 127.921 36.3701C127.004 36.0656 126.24 35.6851 125.553 35.1524C124.866 34.6197 124.331 33.9348 123.873 33.0977C123.491 32.2606 123.262 31.3473 123.262 30.2819C123.262 29.0643 123.491 28.075 123.949 27.2378C124.407 26.4007 125.018 25.7158 125.782 25.1831C126.546 24.6504 127.386 24.1938 128.379 23.8894C129.372 23.585 130.365 23.3567 131.434 23.2044C132.504 23.0522 133.573 22.9761 134.566 22.9761C135.635 22.9761 136.628 22.9 137.468 22.9C137.468 21.7585 137.086 20.8453 136.246 20.1604C135.406 19.4755 134.413 19.1711 133.344 19.1711C132.274 19.1711 131.282 19.3994 130.441 19.856C129.525 20.3126 128.761 20.9214 128.074 21.6824L124.637 18.1817C125.859 17.0402 127.233 16.2031 128.914 15.6704C130.518 15.1377 132.198 14.8333 133.955 14.8333C135.864 14.8333 137.392 15.0616 138.614 15.5182C139.836 15.9748 140.829 16.6597 141.593 17.5729C142.356 18.4861 142.815 19.6277 143.12 20.9214C143.426 22.2151 143.502 23.8133 143.502 25.5636V36.2179H137.621V33.7826Z" fill="#A2A8C9"/>
<path id="Vector_6" d="M173.825 25.868C173.825 27.4661 174.206 28.7599 175.047 29.6731C175.887 30.6624 177.032 31.119 178.484 31.119C179.935 31.119 181.157 30.6624 181.921 29.6731C182.761 28.6838 183.143 27.39 183.143 25.868C183.143 24.346 182.761 22.9761 181.921 22.0629C181.081 21.0736 179.935 20.617 178.484 20.617C177.032 20.617 175.81 21.0736 175.047 22.0629C174.206 22.9761 173.825 24.2699 173.825 25.868ZM167.943 25.868C167.943 24.1938 168.249 22.6717 168.784 21.3019C169.318 19.9321 170.082 18.7905 170.999 17.8012C171.915 16.8119 173.061 16.127 174.359 15.5943C175.658 15.0616 177.032 14.8333 178.484 14.8333C179.935 14.8333 181.31 15.0616 182.608 15.5943C183.907 16.127 185.052 16.888 185.969 17.8012C186.885 18.7905 187.649 19.9321 188.184 21.3019C188.718 22.6717 189.024 24.1938 189.024 25.868C189.024 27.5422 188.718 29.0643 188.184 30.358C187.649 31.7278 186.885 32.8694 185.969 33.8587C185.052 34.848 183.907 35.5329 182.608 36.0656C181.31 36.5984 179.935 36.8267 178.484 36.8267C177.032 36.8267 175.658 36.5984 174.359 36.0656C173.061 35.5329 171.915 34.7719 170.999 33.8587C170.006 32.8694 169.318 31.7278 168.784 30.358C168.173 29.0643 167.943 27.5422 167.943 25.868Z" fill="#A2A8C9"/>
<path id="Vector_7" d="M161.07 15.29V18.1058H160.993C160.917 17.9536 160.688 17.7253 160.229 17.3448C159.618 16.812 159.16 16.5837 158.549 16.2032C157.938 15.8988 157.251 15.5944 156.487 15.3661C155.723 15.1378 154.73 14.9856 153.814 14.9856C152.286 14.9856 150.911 15.3661 149.765 16.051C148.543 16.6598 147.703 17.2686 146.939 18.3341C146.176 19.3995 145.717 20.3888 145.335 21.7587C144.954 23.1285 144.877 24.6505 144.877 26.0204C144.877 27.6185 145.106 29.1405 145.488 30.4343C145.87 31.8041 146.481 33.0217 147.321 33.9349C148.238 34.9243 149.154 35.457 150.376 35.9897C151.675 36.5224 152.973 36.7507 154.577 36.6746C155.57 36.6746 156.563 36.4463 157.632 35.9897C159.007 35.457 159.924 34.4677 160.306 33.9349H160.382V35.9897C160.382 37.5117 160.077 38.7294 159.084 39.7187C158.167 40.708 156.792 41.2407 154.806 41.2407C153.508 41.2407 152.668 41.2407 151.293 40.9363C150.147 40.6319 148.62 40.0992 147.55 39.2621L144.419 43.9043C146.099 45.1219 147.627 45.8829 149.46 46.3395C151.293 46.7961 153.126 46.9483 155.036 46.9483C159.16 46.9483 162.062 45.8829 164.048 43.8282C166.034 41.7734 166.874 38.7294 166.874 34.7721V15.29H161.07ZM159.466 29.7493C158.625 30.7387 157.48 31.1953 156.029 31.1953C154.501 31.1953 153.355 30.7387 152.515 29.7493C151.675 28.76 151.293 27.4663 151.293 25.8681C151.293 24.27 151.675 22.9763 152.515 21.987C153.355 20.9976 154.501 20.541 156.029 20.541C157.556 20.541 158.702 20.9976 159.466 21.987C160.306 22.9763 160.688 24.27 160.688 25.8681C160.688 27.4663 160.306 28.76 159.466 29.7493Z" fill="#A2A8C9"/>
</g>
<g id="Group_3">
<path id="Vector_8" d="M18.3176 40.1751C-0.31884 30.8907 2.4308 13.9961 7.31906 6.53809C6.02061 7.83182 4.79855 9.27775 3.65287 10.952C2.27804 13.1589 -0.929872 19.0949 0.903223 26.7051C2.65994 34.2391 8.00647 39.338 12.2073 42.0776C19.005 46.5676 25.65 47.5569 30.3091 47.2525C37.2596 46.7959 41.8423 42.7625 44.1337 39.1857C45.5085 37.0549 46.1196 35.0002 46.3487 34.163C45.7377 35.1524 36.8777 49.3834 18.3176 40.1751Z" fill="#A2A8C9"/>
<path id="Vector_9" d="M30.9971 39.7948C30.6916 39.8709 30.3097 39.8709 30.0042 39.8709C26.1089 39.947 21.908 38.5772 18.9292 37.0551C16.7143 35.9136 13.8119 33.935 11.5969 31.0431C0.369161 16.8121 14.8812 2.20054 18.8529 0.450195C18.0891 0.602399 17.1725 0.754602 16.256 1.05901C13.8119 1.82003 10.4512 3.57037 7.39603 6.53834C6.86137 7.14715 6.4031 7.75597 5.94483 8.44088C4.57 10.5717 1.51485 16.3555 3.27156 23.7373C5.02828 31.1192 10.1457 36.0658 14.3465 38.7294C20.9915 43.0672 27.4073 44.0565 31.9901 43.7521C38.7878 43.2955 43.2941 39.3382 45.5091 35.8375C45.891 35.2287 46.2729 34.6199 46.5021 34.0111C46.5784 33.7828 46.5784 33.6306 46.5784 33.6306C46.7312 33.0218 46.9603 31.8802 47.0367 31.4997C47.495 28.5318 47.2658 25.5638 46.7312 23.1285C45.9674 28.5318 41.7666 38.8816 30.9971 39.7948Z" fill="#A2A8C9"/>
<path id="Vector_10" d="M43.1413 14.3006C42.7594 13.5396 42.072 12.6264 42.072 12.5503C41.5374 11.7132 40.9263 10.9522 40.4681 10.4194C39.3224 9.04961 37.1838 8.8213 35.8089 9.96283C34.3577 11.1044 34.1286 13.1591 35.2743 14.6811C36.5727 16.3554 37.3365 17.6491 38.2531 19.6278C38.635 20.541 39.4751 22.5957 39.9334 25.1071C40.3153 27.314 40.5444 31.7279 38.1767 35.3047C37.4129 36.4462 35.5798 38.9576 31.8372 39.7186H31.6845C31.4553 39.7947 31.2262 39.7947 30.9971 39.7947C31.379 39.7947 31.7609 39.7947 32.1428 39.7186C38.1003 39.3381 42.072 35.8374 44.0579 32.7934C45.5855 30.3581 46.0437 28.1512 46.0437 28.1512C46.1965 27.6184 46.3492 26.6291 46.4256 26.3247C46.5784 25.2593 46.6548 24.27 46.6548 23.2806C46.4256 22.1391 46.1201 21.1498 45.891 20.2366C45.1272 18.0296 44.1343 16.051 43.1413 14.3006Z" fill="#A2A8C9"/>
<path id="Vector_11" d="M9.9921 28.3795C9.45745 27.3141 9.07555 26.1726 8.77003 24.9549C8.38814 23.2807 8.159 18.9429 10.6795 15.2139C13.4292 11.2566 16.5607 8.66915 23.8931 8.59305C26.2608 8.59305 28.0939 7.37542 28.323 5.01627C28.5522 2.65711 27.0246 0.602363 24.5041 0.297956C23.6639 0.145752 22.7474 0.145752 21.8308 0.145752C21.8308 0.145752 20.6088 0.145752 18.7757 0.450159C15.8733 1.66779 11.9016 4.25525 9.15193 8.51695C7.92987 10.4195 5.2566 15.5183 6.78418 22.0631C7.62435 25.716 9.45745 28.6839 11.5197 31.0431C10.985 30.206 10.4504 29.2927 9.9921 28.3795Z" fill="#A2A8C9"/>
</g>
</g>
</g>
<defs>
<clipPath id="clip0_422_1196">
<rect width="188.732" height="47.1831" fill="white" transform="translate(0.368164 0.145752)"/>
</clipPath>
</defs>
</svg>
