<svg width="98" height="88" viewBox="0 0 98 88" fill="none" xmlns="http://www.w3.org/2000/svg">
<g id="Virgin svg" clip-path="url(#clip0_422_1288)">
<g id="Group">
<path id="Vector" fill-rule="evenodd" clip-rule="evenodd" d="M83.2581 20.1398C84.0174 19.7597 84.9665 19.5697 85.9157 19.9498C85.9157 19.9498 85.9157 19.9498 86.1055 19.9498C86.2953 19.9498 86.4852 20.3298 86.675 20.3298C86.8648 20.5198 86.8648 20.7098 87.0546 21.0898C87.0546 21.2798 87.0546 21.4698 87.4343 21.6598C87.2445 21.8499 87.2445 21.8499 87.2445 22.0399C87.2445 22.2299 87.4343 22.2299 87.4343 22.4199V22.9899C87.2445 22.9899 87.2445 23.1799 87.2445 23.3699V23.94H87.4343C87.4343 24.13 87.4343 24.32 87.4343 24.51C87.4343 24.7 87.4343 24.89 87.4343 25.08C87.4343 25.27 87.4343 25.4601 87.4343 25.6501C87.4343 25.6501 87.0546 25.6501 87.0546 25.8401C87.0546 26.0301 87.0546 26.0301 87.2445 26.2201C87.0546 26.4101 87.0546 26.4101 87.2445 26.6001L87.0546 26.7901C87.0546 27.3602 87.0546 27.9302 87.0546 28.5002C87.0546 28.6902 87.0546 28.6902 87.2445 29.0702C87.2445 29.0702 87.0546 29.2603 87.2445 29.4503V29.6403C87.2445 29.8303 87.2445 30.0203 87.4343 30.0203C87.4343 30.2103 87.4343 30.2103 87.4343 30.2103C87.4343 30.4003 87.4343 30.4003 87.4343 30.5903V30.7803C87.4343 30.9704 87.4343 30.9703 87.4343 31.1604C87.2445 31.3504 87.4343 31.3504 87.6241 31.3504L87.4343 31.7304L87.6241 31.9204C87.4343 32.1104 87.4343 32.1104 87.4343 32.3004C87.4343 32.4904 87.4343 32.4904 87.4343 32.6804C87.2445 32.8705 87.6241 33.0605 87.6241 33.0605C87.6241 33.0605 87.6241 33.2505 87.4343 33.2505C87.2445 33.4405 87.2445 33.4405 87.4343 33.4405V33.6305C87.4343 33.8205 87.4343 34.0105 87.6241 34.0105C87.6241 34.0105 87.6241 34.0105 87.8139 34.2005C88.0038 34.5805 88.3834 34.5805 88.7631 34.3905C89.3326 34.2005 89.902 33.8205 90.6614 33.6305C91.6105 33.2505 92.3698 32.6804 93.3189 32.3004C94.2681 31.9204 95.2172 31.7304 96.1664 31.9204C96.3562 31.9204 96.546 31.9204 96.7358 31.9204C96.9257 31.9204 97.1155 32.1104 97.3053 32.1104C97.685 32.4904 97.8748 32.8705 98.0646 33.2505C98.0646 33.2505 98.0646 33.2505 98.0646 33.4405V33.6305C97.8748 33.8205 97.8748 33.8205 98.0646 34.0105V34.2005H97.8748C97.685 34.3905 97.685 34.5805 97.4951 34.7706C97.1155 35.7206 96.3562 36.2906 95.407 36.8607C94.6477 37.4307 93.6986 37.6207 92.7495 37.8107C91.6105 38.1907 90.6614 38.5708 89.5224 38.9508C88.3834 39.3308 87.2445 39.9008 86.2953 40.2809C85.536 40.6609 84.7767 41.0409 84.2072 41.4209C83.4479 41.8009 82.4988 42.371 81.7395 42.751C80.6005 43.321 79.6514 43.891 78.5124 44.4611C76.9938 45.4111 75.2854 46.1712 73.7667 47.1212C72.6278 47.6912 71.6786 48.2613 70.5397 49.0213C69.5905 49.5914 68.6414 49.9714 67.8821 50.5414C67.1228 51.1114 66.3635 51.4915 65.6042 52.0615C65.2245 52.2515 65.0347 52.6315 64.655 52.8215C63.7059 53.2015 62.9466 53.7716 62.1873 54.3416C61.8076 54.5316 61.428 54.9116 61.0483 55.1017C61.0483 55.1017 61.0483 55.1017 60.8585 55.1017C60.8585 55.4817 60.4788 55.4817 60.289 55.6717C60.0992 55.8617 59.9094 56.0517 59.9094 56.2417C59.9094 56.6217 59.9094 57.0018 59.9094 57.3818V57.5718C60.0992 57.7618 59.9094 57.7618 59.9094 57.9518V58.1418C60.0992 58.3318 59.9094 58.5218 59.9094 58.9019C60.0992 59.0919 60.0992 59.2819 60.0992 59.4719C60.0992 59.6619 59.9094 60.0419 60.0992 60.2319L59.9094 60.4219V60.6119C60.0992 60.802 60.0992 60.992 59.9094 61.182V61.372C60.0992 61.562 59.9094 61.752 59.9094 61.942C59.9094 62.512 59.9094 62.8921 59.9094 63.4621C59.9094 63.6521 59.9094 63.8421 59.9094 64.0321V64.2221C59.7195 64.4122 59.7195 64.6022 59.9094 64.6022C59.9094 64.7922 59.9094 64.9822 59.9094 64.9822C59.9094 65.5522 59.9094 66.3123 59.9094 66.8823C59.9094 67.0723 59.9094 67.2623 59.9094 67.4523C59.9094 67.6423 59.9094 67.6423 59.9094 67.8323C59.9094 67.8323 59.9094 67.8323 59.9094 68.0223C59.9094 68.2124 59.9094 68.5924 59.9094 68.7824C59.9094 68.9724 59.9094 69.3524 59.9094 69.5424C59.9094 69.7324 59.7195 69.7324 59.7195 69.9224C59.7195 70.1125 59.7195 70.3025 59.7195 70.3025L59.9094 70.4925C59.9094 70.4925 59.9094 70.4925 59.9094 70.6825H59.5297L59.3399 71.2525V71.4425C59.5297 71.6325 59.3399 71.8226 59.3399 71.8226C59.3399 72.0126 59.15 72.2026 59.15 72.3926C59.15 72.5826 59.3399 72.7726 59.3399 73.1526V73.3426C58.9602 73.5326 59.15 73.9127 59.3399 74.1027V74.2927C59.15 74.2927 58.9602 74.6727 59.15 74.8627C59.3399 74.8627 59.3399 75.0527 59.5297 75.2427L59.3399 75.4327C59.5297 75.8128 59.5297 75.8128 59.3399 76.1928L59.7195 76.5728L59.3399 76.9528H59.5297C59.3399 77.1428 59.3399 77.3329 59.5297 77.3329C59.5297 77.5229 59.7195 77.7129 59.5297 78.0929L59.3399 78.2829C59.5297 78.4729 59.5297 78.6629 59.3399 78.8529C59.3399 79.0429 59.3399 79.233 59.5297 79.233C59.7195 79.233 59.7195 79.423 59.7195 79.423C59.7195 79.803 59.9094 80.183 60.0992 80.373C59.9094 80.563 59.9094 80.943 59.5297 80.943H59.7195L59.5297 81.1331C59.5297 81.3231 59.5297 81.5131 59.5297 81.7031C59.5297 81.8931 59.7195 81.8931 59.9094 81.8931C60.0992 81.8931 60.289 82.0831 60.289 82.0831C60.289 82.2731 60.289 82.2731 60.4788 82.4631C60.289 82.6531 60.4788 83.0332 60.0992 83.0332H60.289L60.0992 83.4132C60.289 83.6032 60.289 83.6032 60.4788 83.9832C60.4788 83.9832 60.6687 84.1732 60.8585 84.1732C60.6687 84.3632 60.6687 84.3632 60.6687 84.7432C60.6687 84.7432 60.6687 84.7433 60.6687 84.9333C60.6687 84.9333 60.6687 85.1233 60.4788 85.1233L60.8585 85.3133C60.6687 85.5033 60.6687 85.5033 60.4788 85.6933C60.4788 85.8833 60.289 86.0733 60.289 86.0733C60.0992 86.2633 59.9094 86.4533 59.7195 86.6433C59.3399 86.8334 59.1501 87.0234 58.7704 87.2134C58.5806 87.4034 58.3907 87.4034 58.2009 87.4034C57.8213 87.4034 57.6314 87.4034 57.4416 87.4034H57.2518C56.6823 87.2134 56.3026 87.0234 55.923 86.6433C55.5433 86.2633 55.5433 85.8833 55.3535 85.5033C54.9739 84.3632 54.9739 83.2232 54.9739 82.2731C54.9739 81.5131 54.9739 80.563 54.9739 79.803C54.9739 79.233 54.9739 78.6629 54.9739 77.9029C54.9739 77.3328 54.9739 76.7628 54.9739 76.1928C54.9739 75.6228 54.9739 75.2427 54.9739 74.6727C54.9739 74.2927 54.9739 73.9127 54.9739 73.3426C54.9739 72.9626 54.9739 72.7726 54.9739 72.3926C54.9739 72.0126 54.9739 71.6325 54.9739 71.2525C54.9739 71.0625 54.9739 70.8725 54.9739 70.8725V70.6825C55.1637 70.4925 55.1637 70.3025 55.1637 69.9224C55.1637 68.5924 55.1637 67.4523 55.1637 66.1222V62.8921C55.1637 62.132 55.1637 61.182 55.1637 60.4219C55.1637 60.2319 55.1637 59.8519 55.1637 59.6619V59.4719C54.784 59.6619 54.4044 59.8519 54.0247 60.0419C53.4552 60.4219 52.6959 60.992 52.1264 61.562C51.557 62.132 50.7977 62.5121 50.2282 63.0821L48.8994 64.2221C48.3299 64.6022 47.9502 64.9822 47.3808 65.3622C46.6215 66.1222 45.6723 66.6923 44.913 67.4523C44.3435 67.8323 43.774 68.4024 43.2046 68.7824L40.7368 70.8725C40.1673 71.4425 39.5979 71.8225 38.8385 72.3926C38.4589 72.7726 38.0792 73.1526 37.8894 73.3426C37.6996 73.5326 37.6996 73.7227 37.5098 73.9127C37.1301 74.2927 36.7504 74.4827 36.3708 74.8627C35.9911 75.2427 35.6115 75.6228 35.2318 76.0028C35.042 76.1928 34.8522 76.3828 34.4725 76.5728C34.2827 76.7628 34.2827 76.7628 34.0929 76.9528C33.903 77.1428 33.903 77.1428 33.7132 77.3329C33.5234 77.5229 33.3336 77.7129 33.1437 77.9029L30.676 80.373C30.4861 80.563 30.4861 80.563 30.2963 80.753L29.537 81.7031C29.537 81.8931 29.3472 81.8931 29.1574 82.0831L28.5879 82.6531L28.398 82.8431C28.0184 83.2232 27.8286 83.4132 27.4489 83.7932L26.4998 84.7432C26.1201 84.9333 25.9303 85.1233 25.5506 85.1233C24.7913 85.1233 24.2218 85.1233 23.4625 84.7432C23.0829 84.5532 22.8931 84.3632 22.7032 83.9832C22.5134 83.6032 22.3236 83.0332 22.3236 82.6531C22.3236 82.2731 22.3236 82.0831 22.5134 81.7031C22.8931 81.3231 23.0829 80.943 23.4625 80.563C24.2218 79.613 25.171 78.6629 26.1201 77.9029C26.6896 77.3328 27.4489 76.7628 28.2082 76.0028C28.7777 75.4327 29.3472 75.0527 29.9167 74.4827C30.4861 73.9127 31.0556 73.3426 31.8149 72.9626C32.5742 72.3926 33.1437 71.8226 33.903 71.2525C34.4725 70.6825 35.042 70.3025 35.6115 69.9224C35.9911 69.5424 36.5606 69.1624 36.9403 68.7824C37.3199 68.5924 37.5098 68.4024 37.8894 68.0223L39.5979 66.6923L41.1165 65.5522C41.4961 65.3622 41.8758 64.9822 42.0656 64.7922C42.2554 64.6022 42.4453 64.4122 42.8249 64.2221C43.0147 64.0321 43.2046 63.8421 43.3944 63.8421L45.6723 62.132C46.2418 61.752 46.8113 61.182 47.5706 60.802L49.279 59.6619C49.8485 59.2819 50.2282 58.9019 50.7977 58.5218C51.7468 57.9518 52.5061 57.1918 53.4552 56.6217C54.0247 56.2417 54.5942 55.8617 55.1637 55.2917C55.3535 55.2917 55.3535 55.1017 55.3535 54.9116C55.3535 54.5316 55.3535 53.9616 55.3535 53.5816C55.3535 53.3916 55.3535 53.0115 55.3535 52.8215C55.3535 52.8215 55.3535 52.6315 55.1637 52.6315C55.1637 52.6315 54.9739 52.6315 54.9739 52.8215C54.5942 53.2015 54.0247 53.3916 53.6451 53.7716H53.4552C53.0756 53.7716 52.8857 53.9616 52.5061 54.1516C52.5061 54.1516 52.3163 54.1516 52.3163 54.3416H52.1264C51.9366 54.3416 51.7468 54.3416 51.557 54.3416C50.9875 54.5316 50.418 54.5316 49.8485 54.5316C48.8994 54.5316 47.9502 54.1516 47.3808 53.2015C47.0011 52.8215 47.0011 52.4415 46.8113 51.8715C46.6215 50.9214 46.6215 49.9714 46.6215 49.0213C46.6215 48.6413 46.6215 48.0713 46.6215 47.6913C46.6215 47.5012 46.6215 47.1212 46.6215 46.9312C46.6215 46.7412 46.6215 46.7412 46.6215 46.5512C46.8113 45.7911 46.8113 45.0311 46.8113 44.2711C47.0011 43.131 47.1909 41.8009 47.5706 40.6609C47.9502 39.5208 48.3299 38.5708 49.0892 37.6207C49.4689 37.2407 49.6587 36.8607 50.0383 36.4806C50.418 36.1006 50.7976 35.7206 51.3671 35.5306C51.3671 35.5306 51.557 35.5306 51.557 35.3406C52.1264 34.7706 52.6959 34.7706 53.4552 34.5805C53.8349 34.5805 54.0247 34.5805 54.4044 34.5805C54.5942 34.5805 54.784 34.7706 54.784 34.9606C54.784 35.1506 54.9739 35.3406 54.784 35.7206C54.784 35.9106 54.784 36.1006 54.5942 36.2906C54.5942 36.6707 54.2145 37.0507 54.0247 37.4307C54.0247 37.6207 53.8349 37.6207 53.6451 37.6207C53.4552 37.8107 53.2654 38.0007 53.2654 38.1907C53.2654 38.1907 53.2654 38.3808 53.0756 38.3808C52.8858 38.5708 52.8857 38.7608 52.6959 38.9508C52.6959 39.1408 52.5061 39.3308 52.3163 39.5208C52.3163 39.7108 52.1264 39.9008 52.1264 39.9008C52.1264 40.0908 52.1264 40.2808 51.9366 40.4709C51.7468 40.6609 51.7468 40.6609 51.7468 40.8509C51.557 41.2309 51.557 41.6109 51.3671 41.9909C51.1773 42.371 51.1773 42.751 51.1773 42.941C51.1773 43.131 51.1773 43.321 51.1773 43.511C51.3671 43.701 51.3671 43.891 51.1773 44.0811C51.1773 44.2711 51.1773 44.2711 51.1773 44.4611C51.1773 44.6511 51.1773 45.0311 50.9875 45.2211C50.9875 45.4111 50.9875 45.6011 50.9875 45.7911V45.9812C50.7977 46.5512 50.9875 47.3112 50.9875 47.8813C50.9875 48.2613 51.1773 48.4513 51.3671 48.8313C51.557 49.2113 51.9366 49.4013 52.3163 49.4013C53.0756 49.4013 53.8349 49.0213 54.4044 48.4513C54.9739 47.8813 55.1637 47.3112 55.3535 46.5512C55.5433 45.6011 55.7332 44.4611 55.7332 43.511C55.7332 42.941 55.923 42.371 55.923 41.6109C55.923 41.2309 56.1128 41.0409 55.923 40.6609C56.1128 40.2809 56.1128 40.0908 56.1128 39.7108C56.1128 39.1408 56.3026 38.5708 56.3026 38.0007C56.3026 37.0507 56.4925 36.2906 56.4925 35.3406C56.4925 34.7706 56.4925 34.2005 56.6823 33.6305C56.8721 32.8705 57.4416 32.3004 58.0111 32.1104C58.5806 31.9204 58.9602 31.9204 59.5297 31.9204C59.9094 31.9204 60.289 32.1104 60.4788 32.3004C60.8585 32.6804 60.8585 33.0605 60.8585 33.4405C60.8585 33.6305 60.8585 33.8205 60.8585 34.2005V34.3905V34.5805C61.0483 34.9606 60.6687 35.5306 60.8585 35.9106C60.6687 36.2906 60.8585 36.6707 60.6687 37.2407C60.4788 37.6207 60.4788 38.1907 60.4788 38.5708C60.4788 39.3308 60.4788 40.2809 60.289 41.0409C60.289 41.8009 60.0992 42.751 60.0992 43.511C60.0992 43.891 60.0992 44.2711 60.0992 44.6511C60.0992 44.8411 60.0992 45.0311 60.0992 45.2211C60.0992 45.7911 60.0992 46.3612 60.0992 46.7412C60.0992 46.9312 60.0992 47.3112 60.0992 47.5012C60.0992 47.6913 60.0992 47.8813 60.0992 48.0713C60.0992 48.4513 60.0992 48.6413 60.0992 49.0213C60.0992 49.4013 60.0992 49.5914 60.0992 49.9714C60.0992 50.1614 60.0992 50.5414 60.0992 50.7314C60.0992 51.1114 60.0992 51.3014 60.0992 51.6815C60.0992 51.6815 60.0992 51.8715 60.0992 52.0615C60.289 52.0615 60.289 51.8715 60.4788 51.8715C61.0483 51.4915 61.428 51.1114 61.9975 50.9214C62.9466 50.3514 63.8957 49.7814 64.8449 49.2113C65.6042 48.8313 66.3635 48.2613 67.1228 47.8813C67.6923 47.5012 68.0719 47.3112 68.6414 46.9312C68.8312 46.7412 69.2109 46.5512 69.4007 46.5512C69.7804 46.3612 69.9702 46.1712 70.3498 45.9812H70.5397C70.7295 45.9812 70.9193 45.9812 70.9193 45.7911C71.8685 45.2211 72.8176 44.6511 73.5769 44.2711C74.3362 43.891 75.0955 43.321 75.8548 42.941L79.8412 40.6609L82.6886 39.1408C82.8784 38.9508 83.2581 38.7608 83.4479 38.7608C83.4479 38.7608 83.6377 38.7608 83.6377 38.5708C83.8276 38.3807 83.8276 38.3807 83.6377 38.1907C83.4479 38.0007 83.2581 38.0007 83.0683 37.8107C82.6886 37.4307 82.6886 37.0507 82.4988 36.6707C82.4988 36.1006 82.4988 35.7206 82.4988 35.1506C82.4988 34.5805 82.6886 33.8205 82.6886 33.2505V33.0605C82.4988 32.6804 82.6886 32.1104 82.6886 31.7304V31.5404C82.6886 31.3504 82.4988 31.1604 82.6886 30.7803C82.6886 30.0203 83.0683 29.4503 82.4988 28.6902C82.309 28.3102 82.309 27.7402 82.4988 27.3602C82.8784 26.7901 82.6886 26.4101 82.309 26.2201L82.1191 26.0301C81.7395 26.0301 81.17 25.8401 80.7903 26.2201C80.4107 26.4101 80.2209 26.6001 79.8412 26.7901C79.6514 26.9801 79.4615 27.1701 79.4615 27.3602C79.4615 27.5502 79.2717 27.5502 79.2717 27.7402C79.0819 27.9302 78.8921 28.1202 78.7022 28.5002C78.7022 28.6902 78.5124 28.6902 78.3226 28.8802C78.3226 29.0702 78.3226 29.4503 78.1328 29.6403V29.8303C78.1328 30.0203 78.1328 30.4003 77.9429 30.5903C77.9429 30.5903 77.9429 30.5903 77.9429 30.7803C77.9429 30.9704 77.9429 30.9704 77.7531 30.9704L77.5633 29.4503L77.7531 29.6403V30.0203C77.7531 30.0203 77.5633 30.0203 77.5633 30.2103C77.5633 30.2103 77.5633 30.4003 77.5633 30.5903C77.5633 30.7803 77.5633 30.9704 77.7531 30.9704C77.7531 31.1604 77.7531 31.1604 77.7531 31.3504C77.5633 31.5404 77.5633 31.5404 77.3735 31.7304V31.9204C77.5633 32.1104 77.5633 32.3004 77.5633 32.4904V32.6804C77.5633 32.6804 77.3735 32.8705 77.3735 32.6804C77.3735 32.8705 77.1836 33.0605 77.3735 33.2505C77.1836 33.6305 77.3735 34.2005 77.1836 34.7706C77.1836 34.9606 77.3735 34.9606 77.3735 34.9606C77.1836 35.1506 76.9938 35.3406 77.3735 35.7206L77.1836 35.9106L77.3735 36.1006C77.3735 36.2906 77.1836 36.4806 77.1836 36.6707C77.1836 36.8607 77.1836 37.0507 77.1836 37.0507C76.9938 37.2407 77.1836 37.2407 77.1836 37.4307C77.1836 37.4307 77.1836 37.6207 77.1836 37.8107C76.9938 38.1907 76.804 38.3807 76.804 38.7608C76.804 39.3308 76.2345 39.5208 75.8548 39.9008C75.4752 40.0908 75.0955 40.2808 74.7159 40.4709C74.3362 40.6609 73.7667 40.6609 73.3871 40.6609C72.8176 40.4709 72.6278 40.0908 72.438 39.5208C72.438 39.3308 72.438 38.9508 72.438 38.7608C72.438 37.4307 72.6278 36.1006 72.6278 34.9606C72.6278 34.3905 72.6278 33.8205 72.6278 33.2505C72.6278 32.3004 72.8176 31.3504 72.8176 30.4003C72.8176 29.6403 72.8176 28.8802 73.0074 28.3102C73.0074 27.9302 73.0074 27.3602 73.0074 26.9801C73.1973 26.2201 73.3871 25.27 74.1464 24.7C74.9057 23.94 75.8548 23.5599 76.9938 23.75C77.1836 23.75 77.1836 23.75 77.3735 23.75C77.5633 23.5599 77.7531 23.5599 78.1328 23.75C78.5124 23.94 78.8921 23.94 79.2717 23.75C79.8412 23.5599 80.2209 23.1799 80.6005 22.7999C80.6005 22.6099 80.7903 22.6099 80.9802 22.4199C81.3598 22.0399 81.5497 21.8499 81.9293 21.4698C81.9293 21.4698 82.1191 21.2798 82.309 21.2798C82.309 20.5198 82.6886 20.3298 83.2581 20.1398ZM35.4216 0.94873C35.6115 0.94873 35.9911 0.94873 36.181 0.94873C36.5606 0.94873 36.7504 1.13874 37.1301 1.13874C38.2691 1.51876 39.0284 2.2788 39.408 3.41886C39.5978 3.79888 39.5979 4.36891 39.5979 4.93895C39.5979 5.50898 39.408 6.07901 39.0284 6.45903C38.8385 6.64904 38.6487 7.02906 38.4589 7.21907V7.40908C38.4589 7.59909 38.2691 7.7891 38.2691 7.97911C38.2691 7.97911 38.2691 7.97911 38.0792 7.97911C37.8894 7.97911 37.6996 8.16912 37.5098 8.35913C37.5098 8.54914 37.5098 8.54914 37.3199 8.35913C37.1301 8.54914 36.7504 8.73915 36.5606 9.11917C35.9911 9.87921 35.2318 10.6393 34.8522 11.3993C34.6623 11.5893 34.4725 11.9693 34.2827 12.3493C33.3335 13.4894 32.9539 15.0095 32.3844 16.1496C32.0048 16.9096 31.6251 17.6696 31.4353 18.4297C31.4353 18.6197 31.2455 18.8097 31.2455 19.1897C31.2455 19.3797 31.2455 19.3797 31.2455 19.5697C31.2455 19.7597 31.0556 19.9498 31.0556 20.1398C30.8658 20.7098 30.4861 21.0898 30.2963 21.6598C30.1065 21.8499 30.1065 22.2299 30.1065 22.4199C30.1065 22.7999 29.9167 22.9899 29.7268 23.1799C29.537 23.3699 29.537 23.75 29.3472 23.94C29.1574 24.32 29.1574 24.7 28.9675 25.08C28.7777 25.4601 28.7777 25.8401 28.5879 26.2201C28.5879 26.6001 28.398 26.7901 28.398 27.1701C28.2082 27.7402 28.2082 28.3102 27.8286 28.8802C27.8286 29.0702 27.8286 29.0702 27.8286 29.2603C27.8286 29.4503 27.8286 29.4503 27.8286 29.6403C27.6387 30.0203 27.4489 30.2103 27.4489 30.5903C27.2591 31.1604 27.2591 31.5404 27.0693 32.1104C26.8794 32.3004 26.8794 32.6804 26.8794 32.8705C26.8794 33.4405 26.6896 33.8205 26.6896 34.3905C26.6896 34.5805 26.6896 34.5805 26.6896 34.7706C26.6896 35.1506 26.4998 35.3406 26.4998 35.7206C26.4998 35.7206 26.4998 35.9106 26.3099 35.9106C26.1201 36.1006 25.9303 36.2906 25.9303 36.4806L25.7405 37.0507V37.2407C25.5506 37.4307 25.5506 37.8107 25.3608 38.0007C25.3608 38.1907 25.171 38.3808 25.171 38.3808C24.9812 38.7608 24.7913 39.3308 24.7913 39.7108L24.6015 40.6609C24.4117 41.6109 24.2218 42.561 24.032 43.321C23.8422 44.0811 23.6524 44.6511 23.4625 45.4111V45.6011V45.9812V46.1712C23.2727 46.3612 23.4625 46.3612 23.4625 46.5512C23.4625 46.7412 23.2727 46.7412 23.4625 46.9312C23.4625 46.9312 23.4625 47.1212 23.4625 47.3112C23.2727 47.6912 23.0829 48.0713 23.0829 48.4513C23.2727 48.8313 23.2727 49.4013 22.8931 49.7814C22.8931 49.9714 22.7032 49.9714 22.7032 50.1614C22.8931 50.5414 22.7032 50.9214 22.5134 51.1114C22.5134 51.3014 22.3236 51.4915 22.3236 51.6815C22.3236 52.0615 22.3236 52.2515 22.3236 52.6315C22.3236 52.6315 22.3236 52.8215 22.1337 52.8215C21.9439 53.0115 21.9439 53.0115 21.9439 53.2015C21.9439 53.3916 21.9439 53.3916 21.9439 53.5816C21.7541 54.1516 21.7541 54.7216 21.5643 55.2917C21.5643 55.4817 21.5643 55.8617 21.3744 56.0517C21.3744 56.2417 21.5643 56.4317 21.7541 56.4317C21.7541 56.8117 21.7541 57.0018 21.7541 57.3818C21.5643 57.7618 21.7541 58.1418 21.3744 58.3318C21.1846 58.5218 21.1846 58.7118 21.1846 59.0919C21.1846 59.4719 21.1846 59.8519 20.9948 60.4219C20.9948 60.6119 20.9948 60.6119 20.9948 60.802C20.9948 60.992 20.9948 61.182 21.1846 61.182C21.3744 61.372 21.3744 61.562 20.9948 61.752C20.9948 62.132 20.805 62.5121 20.805 62.7021C20.6151 63.0821 20.6151 63.4621 20.6151 63.8421C20.4253 64.7922 20.4253 65.9322 20.2355 66.8823C20.0456 68.0223 20.0456 69.1624 19.8558 70.3025C19.666 71.4425 19.4762 72.5826 19.4762 73.5326C19.2863 74.2927 19.2863 75.2427 19.0965 76.0028C18.9067 76.5728 18.9067 77.3328 18.7169 77.9029C18.527 78.8529 17.5779 79.423 16.8186 79.423C15.8695 79.613 14.9203 78.6629 14.9203 77.9029C14.7305 76.9528 14.5407 76.1928 14.3508 75.2427C14.161 74.4827 14.161 73.7227 13.9712 72.9626C13.7814 72.2026 13.7814 71.6325 13.5915 70.8725V70.6825C13.5915 70.4925 13.4017 70.4925 13.5915 70.3025V70.1125C13.4017 69.5424 13.4017 68.7824 13.2119 68.2124C13.2119 68.0224 13.2119 68.0223 13.022 68.0223C13.2119 67.6423 13.2119 67.4523 12.8322 67.2623V67.0723C12.8322 66.8823 12.8322 66.5023 12.8322 66.3123L12.6424 65.7422C11.8831 64.7922 11.6933 63.6521 11.5034 62.7021C11.3136 61.942 11.3136 61.182 11.1238 60.6119L10.7441 57.7618C10.5543 57.0018 10.5543 56.2417 10.3645 55.6717C10.1746 54.9116 10.1746 54.1516 9.98481 53.3916V53.2015C9.79498 52.8215 9.79498 52.4415 9.79498 52.0615C9.79498 51.8715 9.79498 51.6815 9.79498 51.4915C9.60515 50.5414 9.41533 49.5914 9.41533 48.6413C9.41533 48.2613 9.41533 48.0713 9.2255 47.6913C9.2255 47.5012 9.03567 47.5012 9.03567 47.3112C8.84584 47.1212 8.84585 47.1212 8.84585 46.9312C8.84585 46.7412 8.84585 46.5512 8.84585 46.5512C8.84585 46.3612 8.84585 46.1712 8.84585 45.9812C8.84585 45.7911 8.84585 45.7911 8.84585 45.6011C8.65602 45.4111 8.65602 45.6011 8.46619 45.6011V45.4111C8.46619 45.2211 8.46619 45.0311 8.27636 45.0311C8.27636 44.8411 8.08654 44.6511 7.89671 44.6511C7.89671 44.6511 7.70688 44.6511 7.70688 44.8411C7.70688 45.0311 7.51705 45.2211 7.51705 45.4111C7.51705 45.6011 7.32723 45.6011 7.32723 45.6011H7.1374C7.1374 45.7911 6.94757 45.7911 6.94757 45.9812C6.94757 46.3612 6.94757 46.5512 6.75775 46.7412C6.56792 46.9312 6.37809 47.3112 6.37809 47.5012C6.18826 48.0713 6.18826 48.4513 6.18826 48.8313V49.0213L5.99844 49.4013C5.99844 49.7814 5.80861 49.9714 5.61878 50.1614C5.61878 50.1614 5.42896 50.3514 5.61878 50.3514C5.42896 50.5414 5.42895 50.7314 5.42895 50.7314C5.42895 51.1114 5.0493 51.3014 5.0493 51.6815C4.85947 52.0615 4.85947 52.2515 4.66965 52.6315C4.66965 52.8215 4.28999 53.0115 4.47982 53.2015C4.28999 53.3916 4.10016 53.5816 3.91034 53.7716C3.34086 54.1516 2.58155 54.3416 1.82224 54.1516C1.06293 53.7716 0.493449 53.0115 0.683276 52.2515C0.683276 52.0615 0.873103 51.8715 0.873103 51.6815C1.06293 50.9214 1.44258 50.1614 1.63241 49.2113C1.82224 48.4513 2.20189 47.8813 2.39172 47.1212C2.39172 46.9312 2.39172 46.7412 2.39172 46.7412C2.58155 46.3612 2.58155 46.1712 2.77137 45.9812C2.9612 45.7911 2.9612 45.6011 2.9612 45.2211C2.9612 45.0311 2.9612 44.8411 3.15103 44.6511C3.34086 44.2711 3.53068 43.891 3.53068 43.511C3.72051 42.941 3.91034 42.371 4.10016 41.9909L4.47982 40.8509C4.66965 40.4709 4.66965 40.0908 4.66965 39.9008C4.85947 39.5208 5.0493 39.1408 5.0493 38.5708C5.61878 37.4307 5.80861 36.1006 6.37809 34.9606C6.56792 34.5805 6.56792 34.2005 6.75775 33.8205C6.94757 33.2505 7.32723 32.6804 7.89671 32.4904C8.84584 31.9204 10.3645 32.1104 10.9339 33.0605C11.3136 33.4405 11.5034 34.0105 11.5034 34.3905C11.6933 35.7206 11.8831 36.8607 12.0729 38.1907C12.2627 38.7608 12.2627 39.3308 12.2627 39.9008C12.2627 40.0908 12.2627 40.2808 12.4526 40.4709V40.6609V40.8509C12.6424 41.2309 12.6424 41.6109 12.6424 41.9909V42.181V42.371C12.8322 42.561 12.8322 42.751 12.8322 42.941C12.8322 42.941 12.8322 42.941 12.8322 43.131C12.6424 43.701 12.8322 44.0811 13.022 44.6511C13.022 45.2211 13.2119 45.6011 13.2119 46.1712C13.2119 46.5512 13.2119 46.7412 13.4017 47.1212C13.4017 47.3112 13.5915 47.3112 13.5915 47.5012C13.5915 47.6913 13.5915 47.6913 13.5915 47.8813C13.7814 48.4513 13.9712 48.8313 13.9712 49.4013C13.9712 49.5914 14.161 49.7814 14.161 49.9714C13.9712 50.3514 14.161 50.5414 14.161 50.9214C14.3508 51.3014 14.3508 51.4915 14.3508 51.8715C14.3508 52.2515 14.5407 52.6315 14.7305 53.0115V53.2015C14.9203 53.3916 14.9203 53.7716 14.7305 53.9616C14.5407 54.3416 14.5407 54.7216 14.5407 54.9116C14.5407 55.2917 14.5407 55.6717 14.9203 55.8617C14.9203 55.8617 15.1101 56.0517 15.1101 56.2417C15.1101 56.4317 15.1101 56.6217 15.1101 57.0018C15.1101 57.1918 15.1101 57.3818 15.1101 57.3818C15.6796 57.5718 15.4898 58.1418 15.6796 58.5218C15.6796 58.7118 15.6796 58.7118 15.8695 58.9019C15.8695 58.9019 15.8695 58.9019 15.8695 59.0919C15.8695 59.2819 15.8695 59.6619 15.8695 59.8519C15.8695 60.0419 15.8694 60.0419 16.0593 60.2319C16.0593 60.2319 16.2491 60.4219 16.4389 60.4219C16.4389 60.2319 16.6288 60.0419 16.6288 59.8519C16.8186 59.0919 16.8186 58.5218 16.8186 57.7618C17.0084 56.6217 17.1982 55.4817 17.3881 54.3416C17.3881 53.7716 17.5779 53.3916 17.5779 52.8215C17.5779 52.4415 17.5779 52.0615 17.5779 51.6815C17.7677 50.7314 17.9575 49.7814 18.1474 48.8313C18.3372 47.8813 18.527 46.7412 18.7169 45.7911C18.7169 45.4111 18.9067 45.0311 18.9067 44.6511L19.2863 42.181C19.2863 41.9909 19.4762 41.6109 19.4762 41.4209L19.8558 39.7108C19.8558 39.5208 20.0456 39.3308 20.0456 39.1408C20.4253 37.8107 20.805 36.4806 21.1846 35.1506C21.3744 34.7706 21.3744 34.3905 21.5643 34.0105C21.5643 33.6305 21.5643 33.4405 21.7541 33.0605C21.9439 32.4904 22.1337 31.9204 22.3236 31.3504C22.5134 30.7803 22.7032 30.0203 22.8931 29.4503C23.0829 29.0702 23.0829 28.6902 23.2727 28.3102C23.2727 27.7402 23.2727 27.5502 23.2727 27.1701V26.9801C23.4625 26.6001 23.6524 26.0301 23.6524 25.6501C23.8422 24.89 24.032 24.32 24.4117 23.75C24.6015 23.3699 24.7913 22.9899 24.7913 22.6099C24.7913 22.2299 24.9812 22.0399 25.171 21.6598C25.3608 21.4698 25.3608 21.2798 25.3608 21.0898C25.9303 19.3797 26.4998 18.0497 27.0693 16.7196C27.2591 16.1496 27.4489 15.3895 27.8286 14.8195C28.2082 13.8694 28.5879 12.7294 28.9675 11.7793C29.3472 10.6393 29.7268 9.6892 30.1065 8.54914C30.2963 8.16912 30.4861 7.7891 30.4861 7.40908C30.676 6.83905 30.8658 6.45903 31.0556 5.889C31.2455 5.12896 31.6251 4.36892 32.0048 3.79888C32.3844 3.22885 32.7641 2.65882 33.3335 2.08879C34.0929 1.51876 34.6623 1.13874 35.4216 0.94873ZM30.4861 43.321H30.676C31.0556 43.321 31.4353 43.701 31.4353 43.891C31.4353 44.0811 31.6251 44.2711 31.6251 44.6511C31.6251 44.8411 31.8149 44.8411 31.8149 45.0311C31.6251 45.2211 31.4353 45.2211 31.6251 45.4111C31.6251 45.6011 31.8149 45.7911 31.8149 46.1712C31.8149 46.3612 31.6251 46.5512 31.8149 46.7412C31.8149 46.7412 31.8149 46.9312 31.8149 47.1212C31.6251 47.3112 31.6251 47.5012 31.6251 47.6913C31.6251 47.8813 31.6251 48.2613 31.6251 48.4513C31.6251 48.8313 31.6251 49.2113 31.2455 49.5914V49.7814C31.2455 50.3514 31.2455 50.7314 31.2455 51.3014C31.2455 51.4915 31.2455 51.8715 31.0556 52.0615C30.8658 52.2515 30.8658 52.4415 30.8658 52.6315C30.8658 52.8215 30.8658 53.2015 30.676 53.3916C30.676 53.5816 30.4861 53.9616 30.4861 54.1516C30.4861 54.7216 30.2963 55.2917 30.2963 55.8617C30.2963 56.2417 30.2963 56.6217 30.2963 56.8117C30.2963 57.1918 30.4861 57.7618 30.2963 58.3318C30.1065 58.7118 30.1065 59.0919 30.1065 59.2819C30.1065 59.4719 30.1065 59.4719 29.9167 59.6619C29.9167 59.8519 29.9167 59.8519 29.9167 60.0419H30.2963V60.4219C30.1065 60.4219 29.9167 60.4219 29.9167 60.6119C29.9167 60.6119 29.9167 60.6119 29.7268 60.6119C29.537 60.6119 29.3472 60.802 29.3472 60.802C28.7777 61.182 28.398 61.562 27.8286 61.752C27.4489 61.942 27.2591 61.942 26.8794 61.942C26.1201 61.942 25.7405 61.562 25.7405 60.802C25.7405 60.0419 25.7405 59.2819 25.7405 58.5218C25.7405 57.7618 25.7405 57.1918 25.9303 56.4317C25.9303 55.8617 25.9303 55.2917 26.1201 54.5316C26.1201 54.3416 26.1201 53.9616 26.1201 53.5816V53.3916C26.3099 53.3916 26.3099 53.2015 26.3099 53.2015V53.0115L26.4998 50.9214C26.4998 50.5414 26.4998 49.9714 26.4998 49.5914V49.4013C26.4998 48.8313 26.6896 48.0713 26.6896 47.5012C26.6896 46.7412 27.0693 45.9812 27.2591 45.2211C27.6387 44.4611 28.2082 43.891 28.7777 43.511C29.1574 43.321 29.7268 42.941 30.1065 42.941C30.2963 42.941 30.676 42.751 30.8658 42.941L30.4861 43.321ZM43.0147 38.5708C43.3944 38.5708 43.774 38.7608 43.9639 39.1408C44.1537 39.3308 44.1537 39.7108 44.3435 39.9008C44.3435 40.0908 44.3435 40.2809 44.3435 40.2809V40.4709C44.3435 41.2309 43.774 41.8009 43.2046 42.181C42.8249 42.561 42.4453 42.751 42.0656 43.131C41.4961 43.511 40.9266 44.2711 40.547 44.8411C40.3572 45.0311 40.3572 45.2211 40.3572 45.4111C40.3572 45.6011 40.1673 45.6011 40.1673 45.7911C40.1673 45.9812 40.1673 46.3612 39.9775 46.5512C39.9775 46.7412 39.9775 46.9312 39.9775 47.1212C39.7877 47.3112 39.7877 47.5012 39.7877 47.6913C39.7877 48.0713 39.5979 48.4513 39.7877 48.8313C39.7877 49.0213 39.7877 49.4013 39.7877 49.5914C39.7877 50.5414 39.7877 51.4915 39.5979 52.4415C39.5979 53.2015 39.5978 53.7716 39.408 54.3416C39.2182 54.9116 39.0284 55.4817 38.6487 55.8617C37.8894 56.6217 37.1301 57.0018 36.3708 57.0018C35.9911 57.0018 35.6115 56.8117 35.2318 56.4317C35.042 56.2417 35.042 55.8617 35.042 55.4817C35.042 55.1017 35.042 54.7216 35.042 54.1516C35.042 53.7716 35.2318 53.3916 35.042 53.0115C35.042 52.6315 35.2318 52.0615 35.042 51.6815C35.042 51.4915 35.042 51.1114 35.042 50.9214C35.042 50.7314 35.042 50.7314 35.042 50.5414C35.042 50.1614 35.042 49.9714 35.042 49.5914C35.042 49.2113 35.042 48.8313 35.2318 48.4513C35.2318 48.2613 35.2318 48.0713 35.2318 47.8813C35.2318 47.5012 35.2318 47.1212 35.4216 46.7412C35.4216 46.1712 35.4216 45.6011 35.6115 44.8411C35.6115 44.2711 35.6115 43.511 35.6115 42.941C35.6115 42.181 35.8013 41.6109 36.181 41.0409C36.5606 40.4709 36.9403 40.0908 37.5098 39.7108C38.0792 39.3308 38.6487 39.3308 39.408 39.1408C39.7877 39.1408 40.1673 38.9508 40.547 38.7608C40.7368 38.5708 40.9266 38.5708 41.3063 38.5708C41.4961 38.3807 41.6859 38.3807 42.0656 38.1907C42.2554 38.7608 42.6351 38.5708 43.0147 38.5708ZM68.4516 26.0301C68.8312 26.0301 69.0211 26.2201 69.0211 26.6001C69.0211 26.7901 69.2109 26.9801 69.2109 27.1701C69.4007 27.3602 69.2109 27.5502 69.2109 27.7402C69.2109 27.9302 69.2109 28.1202 69.0211 28.3102C68.8312 28.5002 69.0211 28.6902 69.0211 28.8802C69.0211 29.2603 69.0211 29.4503 68.8312 29.8303L69.0211 30.0203C69.0211 30.2103 68.8312 30.4003 68.8312 30.7803C68.8312 31.1604 68.8312 31.5404 68.8312 31.9204C68.8312 32.1104 68.8312 32.3004 68.8312 32.3004C68.8312 32.4904 68.8312 32.4904 68.8312 32.6804C68.8312 33.0605 68.8312 33.4405 68.8312 33.8205C68.8312 34.0105 68.8312 34.2005 68.8312 34.3905C68.8312 34.7706 68.8312 34.9606 68.6414 35.1506C68.4516 35.3406 68.6414 35.5306 68.6414 35.7206C68.6414 35.9106 68.6414 36.1006 68.8312 36.1006C68.8312 36.1006 68.8312 36.2906 69.0211 36.2906H68.6414C68.6414 36.4806 68.6414 36.4806 68.8312 36.4806C68.8312 36.4806 68.8312 36.6707 69.0211 36.6707H68.6414C68.6414 36.8607 68.6414 37.0507 68.6414 37.2407C68.6414 38.0007 68.6414 38.5708 68.4516 39.3308C68.4516 39.3308 68.4516 39.3308 68.4516 39.5208V39.7108C68.4516 39.9008 68.4516 39.9008 68.4516 40.0908C68.4516 40.2809 68.4516 40.2808 68.4516 40.4709C68.4516 40.8509 68.2617 41.0409 67.8821 41.4209C67.6923 41.8009 67.3126 42.181 66.933 42.371C66.5533 42.561 65.9838 42.751 65.6042 42.941C65.2245 43.131 64.8449 43.131 64.4652 43.131C63.5161 43.131 63.1364 42.751 63.1364 41.9909C63.1364 41.4209 63.1364 40.8509 63.3262 40.2809C63.3262 39.3308 63.5161 38.3808 63.7059 37.4307C63.8957 36.1006 63.8957 34.7706 64.0856 33.6305C64.2754 32.4904 64.4652 31.3504 64.4652 30.2103C64.4652 30.0203 64.4652 29.6403 64.4652 29.4503C64.4652 28.8802 64.8449 28.1202 65.2245 27.5502C65.6042 26.9801 66.1737 26.6001 66.7431 26.2201C67.3126 26.0301 67.8821 26.0301 68.4516 26.0301ZM32.1946 32.3004C32.7641 32.3004 32.9539 32.4904 32.9539 32.6804C32.9539 32.8705 32.9539 32.8705 33.1437 33.0605C33.3336 33.4405 33.3336 34.0105 33.1437 34.3905C32.9539 34.5805 32.7641 34.9606 32.5742 35.1506C32.1946 35.7206 31.6251 36.1006 31.0556 36.2906C30.8658 36.4806 30.4861 36.6707 30.1065 36.6707C29.7268 36.8607 29.3472 36.6707 28.9675 36.4806C28.5879 36.2906 28.5879 35.9106 28.5879 35.5306C28.5879 35.1506 28.5879 34.9606 28.7777 34.5805C28.9675 34.3905 28.9675 34.0105 29.1574 33.8205C29.3472 33.6305 29.537 33.4405 29.7268 33.2505C30.1065 32.8705 30.4861 32.6804 30.8658 32.3004C31.4353 32.4904 31.8149 32.3004 32.1946 32.3004ZM69.0211 18.2397C69.4007 18.0497 69.7804 18.0497 70.16 18.2397C70.3499 18.2397 70.3499 18.2397 70.5397 18.2397C70.7295 18.4297 70.9193 18.8097 70.9193 19.1897C70.9193 19.3797 70.9193 19.5697 70.9193 19.7597C70.7295 20.3298 70.5397 20.7098 70.16 21.0898L69.9702 21.2798C69.5905 21.8499 69.0211 22.2299 68.4516 22.6099C68.0719 22.7999 67.6923 22.7999 67.3126 22.6099C67.1228 22.6099 66.933 22.4199 66.7431 22.2299C66.5533 22.0399 66.5533 22.0399 66.5533 21.8499C66.1737 20.8998 66.5533 19.9498 67.3126 19.1897C67.6923 18.8097 68.2617 18.4297 69.0211 18.2397Z" fill="#A2A8C9"/>
</g>
</g>
<defs>
<clipPath id="clip0_422_1288">
<rect width="97.1915" height="86.2647" fill="white" transform="translate(0.493164 0.948975)"/>
</clipPath>
</defs>
</svg>
