<svg width="155" height="45" viewBox="0 0 155 45" fill="none" xmlns="http://www.w3.org/2000/svg">
<path id="Vector" fill-rule="evenodd" clip-rule="evenodd" d="M120.719 1.28329C121.458 1.28329 122.059 1.8792 122.059 2.61447C122.059 3.34717 121.458 3.94479 120.719 3.94479C120.365 3.94525 120.026 3.80554 119.774 3.55623C119.523 3.30691 119.381 2.9683 119.379 2.61447C119.379 1.8792 119.982 1.28329 120.719 1.28329ZM120.719 4.29618C121.166 4.29687 121.595 4.12023 121.913 3.805C122.23 3.48976 122.409 3.06164 122.411 2.61447C122.41 2.39303 122.366 2.17392 122.28 1.96965C122.195 1.76539 122.07 1.57999 121.913 1.42404C121.755 1.2681 121.569 1.14467 121.364 1.06081C121.159 0.97695 120.94 0.934308 120.718 0.93532C119.787 0.93532 119.029 1.68598 119.029 2.61447C119.029 3.5404 119.787 4.29618 120.719 4.29618ZM120.382 1.75438C120.472 1.73522 120.564 1.72718 120.657 1.73044C120.946 1.73215 121.147 1.83731 121.147 2.0767C121.147 2.28873 120.96 2.43151 120.664 2.43151H120.382V1.75438ZM120.382 2.60934H120.645C120.892 2.61618 121.009 2.71365 121.072 2.96928C121.132 3.20183 121.182 3.35829 121.213 3.41215H121.5C121.458 3.34033 121.406 3.1625 121.337 2.9043C121.281 2.71194 121.186 2.57771 121.022 2.52641V2.52128C121.246 2.45459 121.426 2.29129 121.426 2.05105C121.427 1.98307 121.413 1.91574 121.383 1.85443C121.354 1.79312 121.311 1.73953 121.257 1.69795C121.126 1.5945 120.932 1.54576 120.636 1.54576C120.449 1.54576 120.245 1.56201 120.106 1.58424V3.41215H120.382V2.60934ZM154.411 7.06199C151.536 6.88245 149.421 8.07513 148.457 8.76679V7.00386H142.246V30.1195H148.577V15.4535C149.481 13.0391 154.331 13.1699 154.379 13.1733L154.743 13.1852V7.08508L154.411 7.06199ZM124.781 18.5955C124.309 15.4415 126.729 13.5982 126.837 13.5204C128.244 12.4893 129.544 12.0738 130.707 12.2841C131.654 12.4534 132.28 13.0083 132.583 13.3426L124.781 18.5955ZM129.968 6.76447C129.782 6.75763 124.898 6.69094 121.477 10.6717C121.246 10.8691 117.836 13.9889 119.097 20.9158C119.134 21.092 119.991 25.165 122.564 27.4204C122.667 27.5273 125.642 30.5385 130.938 30.5983C131.151 30.6069 136.522 30.7992 139.891 26.9074L140.038 26.7356L139.937 26.5312L137.719 21.9521L137.487 21.4596L137.138 21.8785C137.115 21.9084 134.669 24.8025 131.456 25.0256H131.439L131.416 25.0291C131.309 25.0487 128.826 25.4429 127.023 23.3029L140.959 13.7051L141.185 13.5478L141.086 13.2921C141.06 13.2203 138.266 6.40367 129.968 6.76447ZM111.031 1.46454L111.088 29.834L111.09 30.1828H117.721V1.11401H111.031V1.46454H111.031ZM100.607 19.5137C99.5954 20.4311 98.2591 20.3858 98.2437 20.3858C94.6264 20.2276 94.5699 16.889 94.5699 16.7487C94.6212 13.1322 98.0325 13.0006 98.3232 12.9937C101.416 13.3708 101.745 16.2896 101.771 16.5718C101.713 17.867 101.322 18.8579 100.607 19.5145V19.5137ZM94.8555 7.26975C90.4584 8.84545 88.8622 13.1194 88.7981 13.3015C86.8744 17.8055 89.5376 21.764 90.29 22.7489L88.1397 25.2685L87.9132 25.5378L88.1885 25.7618L92.7394 29.4484L93.0344 29.692L93.2499 29.374C95.3736 26.2705 98.531 26.5954 98.6678 26.6108C100.506 26.7219 101.695 27.7632 101.708 27.7752C105.243 30.4513 103.774 34.42 103.709 34.591C101.93 38.6726 98.2437 38.3075 98.0907 38.2896H98.0496C94.9931 38.2896 93.326 35.9068 93.3097 35.8828L93.0652 35.5323C93.0652 35.5297 92.7711 35.8384 92.7711 35.8384L88.8776 39.8234L88.6467 40.0542L88.863 40.2936C93.2456 45.3063 98.7721 44.5205 99.1594 44.459C104.828 44.2051 107.97 39.7977 108.098 39.6088C111.571 35.1903 109.838 29.1585 109.765 28.9021C109.094 25.7045 106.306 23.1977 106.188 23.0926L106.157 23.0609L106.117 23.0464C106.067 23.019 106.032 22.9951 105.994 22.9695C107.541 21.4767 107.966 18.1235 107.981 17.979C108.349 15.7946 107.519 13.4067 107.48 13.3041L107.476 13.2801L107.462 13.2562C107.341 13.0402 107.242 12.8125 107.166 12.5765H108.915L108.986 12.3192L110.305 7.50145L110.425 7.06285H100.72C97.2032 6.28996 94.9521 7.227 94.8555 7.26975ZM79.6303 7.18425C77.2082 7.1398 75.2665 8.13326 74.3534 8.71036V7.00386H67.9575L67.9592 7.35439L68.0814 29.7168L68.0831 30.0639H74.2902V17.9406C74.3996 14.8456 75.6556 14.348 75.6684 14.3463L75.6966 14.3326L75.7299 14.3181C77.8246 13.1502 79.1626 13.8735 79.349 13.9881L79.3712 14.0103L79.4251 14.0325C81.2034 14.8105 80.8973 17.991 80.8956 18.0201V30.0639H87.2865V18.0568C87.2865 13.7589 87.0291 12.6389 86.9018 12.3474C85.3987 7.24239 79.6859 7.18425 79.6303 7.18425ZM60.8536 22.1692C60.8689 22.8027 60.6809 23.3277 60.297 23.7201C59.4309 24.5913 57.8697 24.6093 57.8492 24.6093C56.5873 24.5494 55.6776 24.2134 55.1663 23.609C54.8497 23.2394 54.6915 22.7598 54.726 22.2744C54.8859 21.3655 55.286 20.7183 55.9144 20.3447C57.2439 19.5641 59.2129 20.225 59.2343 20.2293C60.9185 20.7363 60.8587 22.082 60.8536 22.1692ZM53.6821 7.19537L52.2441 12.1311L52.1175 12.5757H61.0947V15.0952C55.5613 12.8125 52.0295 15.6424 51.8799 15.7655C48.5489 18.0919 48.6327 21.9469 48.6387 22.1128L48.6404 22.0709C48.3266 25.7267 51.2788 28.1069 51.4036 28.2027C53.2469 29.7904 55.3775 30.1058 55.4673 30.1195C58.0621 30.5812 60.3209 29.4894 61.3366 28.8773V30.0058H66.8879V6.94401H53.7582L53.6821 7.19537ZM51.0993 12.9929V6.75763L50.741 6.76532C47.8932 6.83201 45.9139 7.87507 44.9906 8.47696V7.03292H38.6305L38.6288 7.3809L38.5416 29.6861V30.0323H45.0786V16.0622C45.4121 13.0356 50.6983 12.9929 50.747 12.9929H51.0976H51.0993ZM40.0523 1.4141H33.1074L33.0176 1.62784L27.6493 14.5959L20.8096 1.86552L20.4847 1.2585L20.1804 1.87749L13.8707 15.0055L8.1587 1.53551L8.07064 1.32176H0.849609L1.04369 1.8014L13.0816 31.3344L13.3877 32.0894L13.7271 31.3447L20.601 16.152L27.9092 31.4387L28.2623 32.1791L28.5547 31.4148L39.8719 1.88604L40.0514 1.41325L40.0523 1.4141Z" fill="#A2A8C9"/>
</svg>
