<svg width="162" height="39" viewBox="0 0 162 39" fill="none" xmlns="http://www.w3.org/2000/svg">
<rect width="162" height="39" fill="#E1E1E1"/>
<rect width="1920" height="4169" transform="translate(-251 -678)" fill="white"/>
<path d="M33.3694 32.5717C33.3694 35.0869 31.2702 37.1285 29.6894 37.1285H11.8142L34.2974 1.21167H4.23658V7.16367H5.77899C5.77899 4.64847 7.40459 2.61327 8.99179 2.61327H24.435L1.81738 38.5237H34.4318V32.5717H33.3694Z" fill="#A2A8C9"/>
<path d="M72.3771 35.619L54.9819 1.21265L39.0395 35.6447C38.7579 36.3999 37.2219 37.3535 35.0459 37.3535V38.5182H43.5323V37.3535C41.9579 37.3535 40.2683 36.5727 40.6779 35.6382L44.5115 27.3246H59.2187L63.3979 35.619C63.8715 36.4575 61.7531 37.3599 59.5707 37.3599V38.5247H77.2347L77.2411 37.3599C74.5659 37.3535 72.9339 36.5215 72.3771 35.619ZM45.1515 25.9806L51.5131 12.0158L58.6171 25.9806H45.1515Z" fill="#A2A8C9"/>
<path d="M79.2646 2.65167C81.8502 2.65167 83.9879 3.31727 83.9879 4.12367C83.9879 10.5237 83.9751 35.5797 83.9879 35.5797C83.9879 36.4373 81.8823 37.3909 79.2903 37.3909L79.2839 38.5173H96.5767V37.4677C94.0103 37.4677 91.9303 36.4437 91.9303 35.5861V2.33807H96.9159C101.716 2.33807 105.607 6.32527 105.607 10.8501C105.607 15.3749 101.716 19.0485 96.9095 19.0485H93.4599C93.4599 19.0485 105.146 36.7445 105.165 36.7445C105.626 37.4165 105.857 38.5237 105.857 38.5237H118.458V37.4741C116.033 37.4741 114.765 36.4693 114.061 35.5861L102.81 20.9045C108.212 20.5461 112.391 16.1813 112.391 10.9973C112.391 5.58287 107.738 1.21167 101.997 1.21167H79.2646V2.65167Z" fill="#A2A8C9"/>
<path d="M156.961 35.6181L139.566 1.21167L123.623 35.6437C123.342 36.3989 121.812 37.3909 119.63 37.3909V38.5173H128.116V37.4677C126.542 37.4677 124.859 36.5717 125.262 35.6373L129.095 27.3237H143.803L147.982 35.6181C148.462 36.4565 146.337 37.3973 144.155 37.3973V38.5237H161.819L161.825 37.4357C159.15 37.4357 157.518 36.5205 156.961 35.6181ZM129.729 25.9797L136.091 12.0149L143.195 25.9797H129.729Z" fill="#A2A8C9"/>
</svg>
